<svg width="41" height="29" viewBox="0 0 41 29" fill="none" xmlns="http://www.w3.org/2000/svg">
<g clip-path="url(#clip0_1748_615)">
<path fill-rule="evenodd" clip-rule="evenodd" d="M20.5405 0.214355C26.9928 0.214355 33.3063 3.27969 39.4473 9.11879C39.4552 9.12626 39.463 9.13383 39.4706 9.1415C40.0919 9.76218 40.4994 10.6707 40.4994 11.6139C40.4994 11.7893 40.4649 11.9568 40.4024 12.1098C40.3091 12.8173 40.0048 13.5635 39.3624 14.1284C38.9912 14.4824 38.6193 14.8261 38.2469 15.1596C38.2247 15.1897 38.201 15.2189 38.176 15.2475C38.0753 15.3619 37.9592 15.4547 37.8335 15.5253C32.4175 20.2594 26.8795 22.8235 21.2221 23.0206C15.3191 23.2262 9.51863 20.8473 3.83718 16.1168C3.69097 16.2507 3.54685 16.3875 3.40315 16.5312C3.39078 16.5435 3.37816 16.5556 3.36529 16.5675C3.0792 16.8314 3.01466 17.3475 3.37045 17.7325L3.37985 17.7414C9.21827 23.2926 14.9166 25.9225 20.476 25.9225C26.0353 25.9225 31.7336 23.2926 37.572 17.7414C38.0975 17.2418 38.9289 17.2624 39.4289 17.7874C39.929 18.3124 39.9083 19.1432 39.3829 19.6427C33.2418 25.4818 26.9283 28.5472 20.476 28.5472C14.0701 28.5472 7.80118 25.5259 1.70187 19.7686C1.57479 19.6832 1.4401 19.562 1.32726 19.3929C1.3191 19.3806 1.31118 19.3684 1.3035 19.3561C0.144034 17.9469 0.247221 15.8922 1.56246 14.6585C2.04338 14.1795 2.52046 13.7709 2.95801 13.3962L2.97218 13.3841L2.99097 13.3683C8.71011 8.35658 14.5505 5.73284 20.5081 5.73284C26.1591 5.73284 31.7047 8.09351 37.1414 12.6136C37.2842 12.4806 37.4271 12.3459 37.5702 12.2093C37.5872 12.1931 37.6047 12.1772 37.6226 12.1619C37.7057 12.0908 37.808 11.9238 37.808 11.6138C37.808 11.5294 37.816 11.4468 37.8313 11.3667C37.7879 11.231 37.7131 11.1007 37.6216 11.006C31.7885 5.46441 26.0951 2.83902 20.5405 2.83902C14.981 2.83902 9.28273 5.46886 3.44431 11.0201C2.91883 11.5198 2.08746 11.4992 1.58741 10.9741C1.08735 10.4491 1.10797 9.61842 1.63345 9.11879C7.77457 3.27969 14.088 0.214355 20.5405 0.214355ZM35.1402 14.367C30.1425 10.2977 25.2747 8.3575 20.5081 8.3575C15.7361 8.3575 10.8627 10.3021 5.85911 14.3808C11.0807 18.6337 16.1617 20.5707 21.1305 20.3976C25.7032 20.2382 30.3691 18.2856 35.1402 14.367ZM17.9574 14.3801C17.9574 12.9723 19.0994 11.8312 20.5082 11.8312C21.9171 11.8312 23.0592 12.9723 23.0592 14.3801C23.0592 15.7877 21.9171 16.9289 20.5082 16.9289C19.0994 16.9289 17.9574 15.7877 17.9574 14.3801ZM20.5082 9.20654C17.6487 9.20654 15.3304 11.5228 15.3304 14.3801C15.3304 17.2372 17.6487 19.5534 20.5082 19.5534C23.3679 19.5534 25.6861 17.2372 25.6861 14.3801C25.6861 11.5228 23.3679 9.20654 20.5082 9.20654Z" fill="#B5179E"/>
</g>
<defs>
<clipPath id="clip0_1748_615">
<rect width="40" height="28.5714" fill="white" transform="translate(0.5 0.214355)"/>
</clipPath>
</defs>
</svg>
