<svg width="42" height="42" viewBox="0 0 42 42" fill="none" xmlns="http://www.w3.org/2000/svg">
<g clip-path="url(#clip0_1746_528)">
<mask id="mask0_1746_528" style="mask-type:luminance" maskUnits="userSpaceOnUse" x="0" y="0" width="42" height="42">
<path d="M42 0H0V42H42V0Z" fill="white"/>
</mask>
<g mask="url(#mask0_1746_528)">
<mask id="mask1_1746_528" style="mask-type:luminance" maskUnits="userSpaceOnUse" x="5" y="5" width="32" height="32">
<path d="M36.75 5.25H5.25V36.75H36.75V5.25Z" fill="white"/>
</mask>
<g mask="url(#mask1_1746_528)">
<path d="M8.09863 14.826V27.174C8.09863 27.9678 8.51443 28.686 9.20743 29.0892L19.9048 35.2632C20.5852 35.6538 21.4294 35.6538 22.1098 35.2632L32.8072 29.0892C33.4876 28.6986 33.916 27.9678 33.916 27.174V14.826C33.916 14.0322 33.5002 13.314 32.8072 12.9108L22.1098 6.73679C21.4294 6.3462 20.5852 6.3462 19.9048 6.73679L9.20743 12.9108C8.52703 13.3014 8.11123 14.0322 8.11123 14.826H8.09863Z" fill="#213147"/>
<path d="M23.3322 23.394L21.8076 27.5772C21.7698 27.6906 21.7698 27.8166 21.8076 27.9426L24.4284 35.1372L27.465 33.3858L23.8236 23.394C23.7354 23.1672 23.4204 23.1672 23.3322 23.394Z" fill="#12AAFF"/>
<path d="M26.394 16.3632C26.3058 16.1364 25.9908 16.1364 25.9026 16.3632L24.378 20.5464C24.3402 20.6598 24.3402 20.7858 24.378 20.9118L28.6746 32.6928L31.7112 30.9414L26.394 16.3758V16.3632Z" fill="#12AAFF"/>
<path d="M21.0008 7.203C21.0764 7.203 21.152 7.2282 21.215 7.266L32.7818 13.944C32.9204 14.0196 32.996 14.1708 32.996 14.322V27.678C32.996 27.8292 32.9078 27.9804 32.7818 28.056L21.215 34.734C21.152 34.7718 21.0764 34.797 21.0008 34.797C20.9252 34.797 20.8496 34.7718 20.7866 34.734L9.21984 28.056C9.08124 27.9804 9.00564 27.8292 9.00564 27.678V14.3094C9.00564 14.1582 9.09384 14.007 9.21984 13.9314L20.7866 7.2534C20.8496 7.2156 20.9252 7.1904 21.0008 7.1904V7.203ZM21.0008 5.25C20.585 5.25 20.1818 5.3508 19.8038 5.565L8.23704 12.243C7.49364 12.6714 7.04004 13.4526 7.04004 14.3094V27.6654C7.04004 28.5222 7.49364 29.3034 8.23704 29.7318L19.8038 36.4098C20.1692 36.624 20.585 36.7248 21.0008 36.7248C21.4166 36.7248 21.8198 36.624 22.1978 36.4098L33.7646 29.7318C34.508 29.3034 34.9616 28.5222 34.9616 27.6654V14.3094C34.9616 13.4526 34.508 12.6714 33.7646 12.243L22.1852 5.565C21.8198 5.3508 21.404 5.25 20.9882 5.25H21.0008Z" fill="#9DCCED"/>
<path d="M13.3398 32.7054L14.4108 29.7822L16.5528 31.5588L14.5494 33.3984L13.3398 32.7054Z" fill="#213147"/>
<path d="M20.0173 13.3644H17.0815C16.8673 13.3644 16.6657 13.503 16.5901 13.7046L10.3027 30.9414L13.3393 32.6928L20.2693 13.7046C20.3323 13.5282 20.2063 13.3518 20.0299 13.3518L20.0173 13.3644Z" fill="white"/>
<path d="M25.159 13.3644H22.2232C22.009 13.3644 21.8074 13.503 21.7318 13.7046L14.5498 33.3858L17.5864 35.1372L25.3984 13.7046C25.4614 13.5282 25.3354 13.3518 25.159 13.3518V13.3644Z" fill="white"/>
</g>
</g>
</g>
<defs>
<clipPath id="clip0_1746_528">
<rect width="42" height="42" fill="white"/>
</clipPath>
</defs>
</svg>
