<svg width="600" height="600" viewBox="0 0 600 600" fill="none" xmlns="http://www.w3.org/2000/svg">
<g clip-path="url(#clip0_498_1033)">
<path d="M599.055 0.0458984H0.0537109V599.048H599.055V0.0458984Z" fill="white"/>
<path fill-rule="evenodd" clip-rule="evenodd" d="M368.693 378.264L366.697 377.11L299.531 338.33L232.369 377.11L230.373 378.264L232.369 379.417L299.535 418.205L366.697 379.417L368.693 378.264ZM331.117 358.874L299.531 340.635L267.952 358.87L299.537 377.108L331.117 358.874ZM333.114 360.026L301.533 378.261L333.122 396.501L364.7 378.264L333.114 360.026ZM297.541 378.261L265.956 360.023L234.365 378.264L265.948 396.503L297.541 378.261ZM267.944 397.655L299.537 379.414L331.126 397.654L299.535 415.899L267.944 397.655Z" fill="#A1A1A1"/>
<path d="M230.871 338.613L197.277 358.011L163.667 338.618V299.854L197.255 280.449L230.871 299.848V338.613Z" fill="white" stroke="#595959" stroke-width="2"/>
<path d="M230.871 338.613L197.277 358.011L163.667 338.618V299.854L197.255 280.449L230.871 299.848V338.613Z" stroke="#595959" stroke-width="2"/>
<path d="M230.858 299.848L197.262 319.212M197.262 319.212L163.722 299.884M197.262 319.212V357.931" stroke="#595959" stroke-width="2"/>
<path d="M435.388 338.613L401.793 358.011L368.184 338.618V299.854L401.771 280.449L435.388 299.848V338.613Z" fill="white" stroke="#595959" stroke-width="2"/>
<path d="M435.388 338.613L401.793 358.011L368.184 338.618V299.854L401.771 280.449L435.388 299.848V338.613Z" stroke="#595959" stroke-width="2"/>
<path d="M435.373 299.848L401.777 319.212M401.777 319.212L368.237 299.884M401.777 319.212V357.931" stroke="#595959" stroke-width="2"/>
<path d="M333.157 279.577L299.562 298.975L265.953 279.581V240.818L299.541 221.412L333.157 240.813V279.577Z" fill="white" stroke="#595959" stroke-width="2"/>
<path d="M333.157 279.577L299.562 298.975L265.953 279.581V240.818L299.541 221.412L333.157 240.813V279.577Z" stroke="#595959" stroke-width="2"/>
<path d="M333.144 240.812L299.548 260.175M299.548 260.175L266.007 240.847M299.548 260.175V298.895" stroke="#595959" stroke-width="2"/>
<path d="M334.132 516.304L299.538 536.279L264.956 516.314V476.377L299.516 456.411L334.132 476.388V516.304Z" fill="white"/>
<path d="M299.539 496.322V536.277L264.956 516.315V476.377L299.539 496.322Z" fill="#A1A1A1"/>
<path d="M334.131 476.389L299.539 496.344L264.956 476.382L299.52 456.406L334.131 476.389Z" fill="#EDEDED"/>
<path d="M333.134 515.729L299.539 535.127L265.955 515.737V476.953L299.517 457.564L333.134 476.964V515.729Z" stroke="black" stroke-width="2"/>
<path d="M231.844 457.272L197.25 477.246L162.668 457.281V417.344L197.228 397.378L231.844 417.355V457.272Z" fill="white"/>
<path d="M197.251 437.288V477.243L162.668 457.282V417.343L197.251 437.288Z" fill="#A1A1A1"/>
<path d="M231.843 417.355L197.251 437.31L162.668 417.348L197.232 397.373L231.843 417.355Z" fill="#EDEDED"/>
<path d="M230.845 456.695L197.25 476.093L163.666 456.705V417.919L197.228 398.531L230.845 417.93V456.695Z" stroke="black" stroke-width="2"/>
<path d="M129.619 398.237L95.0262 418.212L60.4443 398.246V358.309L95.0042 338.343L129.619 358.32V398.237Z" fill="white"/>
<path d="M95.0273 378.253V418.209L60.4443 398.247V358.309L95.0273 378.253Z" fill="#A1A1A1"/>
<path d="M129.618 358.321L95.0273 378.275L60.4443 358.314L95.0078 338.338L129.618 358.321Z" fill="#EDEDED"/>
<path d="M128.62 397.66L95.0259 417.059L61.4424 397.67V358.885L95.0042 339.496L128.62 358.896V397.66Z" stroke="black" stroke-width="2"/>
<path d="M538.63 398.237L504.037 418.212L469.455 398.246V358.309L504.015 338.343L538.63 358.32V398.237Z" fill="white"/>
<path d="M504.038 378.253V418.209L469.455 398.247V358.309L504.038 378.253Z" fill="#A1A1A1"/>
<path d="M538.629 358.321L504.038 378.275L469.455 358.314L504.018 338.338L538.629 358.321Z" fill="#EDEDED"/>
<path d="M537.632 397.66L504.038 417.059L470.454 397.67V358.885L504.016 339.496L537.632 358.896V397.66Z" stroke="black" stroke-width="2"/>
<path d="M436.383 457.272L401.789 477.246L367.207 457.281V417.344L401.767 397.378L436.383 417.355V457.272Z" fill="white"/>
<path d="M401.79 437.288V477.243L367.207 457.282V417.343L401.79 437.288Z" fill="#A1A1A1"/>
<path d="M436.381 417.355L401.79 437.31L367.207 417.348L401.77 397.373L436.381 417.355Z" fill="#EDEDED"/>
<path d="M435.384 456.695L401.789 476.093L368.205 456.705V417.919L401.767 398.531L435.384 417.93V456.695Z" stroke="black" stroke-width="2"/>
<path d="M367.688 378.268L367.707 181.47" stroke="black" stroke-dasharray="4 4"/>
<path d="M231.366 378.268V181.47" stroke="black" stroke-dasharray="4 4"/>
<path d="M299.523 417.916L299.543 220.854" stroke="black" stroke-dasharray="4 4"/>
<path d="M368.204 181.77L299.557 221.401L230.869 181.76V102.458L299.531 62.8257L368.204 102.471V181.77Z" fill="white"/>
<path d="M368.209 102.476L299.573 142.112L230.872 102.457L299.531 62.8242L368.209 102.476Z" fill="url(#paint0_linear_498_1033)"/>
<path d="M366.208 180.617L299.557 219.096L232.866 180.607V103.611L299.531 65.1309L366.208 103.624V180.617Z" stroke="black" stroke-width="4"/>
</g>
<defs>
<linearGradient id="paint0_linear_498_1033" x1="230.872" y1="62.8242" x2="375.863" y2="123.961" gradientUnits="userSpaceOnUse">
<stop/>
<stop offset="1" stop-color="#333333"/>
</linearGradient>
<clipPath id="clip0_498_1033">
<rect width="600" height="600" fill="white"/>
</clipPath>
</defs>
</svg>
