<svg width="600" height="600" viewBox="0 0 600 600" fill="none" xmlns="http://www.w3.org/2000/svg">
<g clip-path="url(#clip0_514_1634)">
<path d="M599.11 0.0458984H0.108398V599.048H599.11V0.0458984Z" fill="white"/>
<path fill-rule="evenodd" clip-rule="evenodd" d="M298.425 495.096L163.232 417.042L130.146 436.156L128.149 437.309L130.146 438.462L299.596 536.281L469.003 438.458L471 437.305L469.003 436.152L435.925 417.062L299.582 495.762L298.426 495.095L298.425 495.096ZM299.582 498.067L299.579 498.068L299.576 498.066L268.493 516.02L299.596 533.976L330.689 516.021L299.582 498.067ZM332.686 514.868L365.282 496.045L334.181 478.095L301.578 496.914L332.686 514.868ZM435.925 419.367L404.372 437.581L435.42 455.545L467.007 437.305L435.925 419.367ZM370.261 457.27L402.376 438.733L433.425 456.697L401.354 475.216L370.261 457.27ZM368.263 458.422L336.179 476.942L367.279 494.892L399.357 476.369L368.263 458.422ZM266.496 514.868L297.579 496.914L264.995 478.101L233.899 496.05L266.496 514.868ZM230.898 458.415L262.999 476.948L231.902 494.898L199.801 476.366L230.898 458.415ZM197.803 475.213L228.901 457.263L196.857 438.762L165.715 456.689L197.803 475.213ZM163.232 419.348L194.858 437.608L163.716 455.536L132.143 437.308L163.232 419.348Z" fill="#A1A1A1"/>
<path d="M334.173 437.604L299.579 457.579L264.998 437.614V240.246L299.581 220.267L334.173 240.28V437.604Z" fill="white"/>
<path d="M299.58 260.205V457.577L264.998 437.615V240.238L299.58 260.205Z" fill="#A1A1A1"/>
<path d="M334.169 240.281L299.581 260.204L265.002 240.238L299.574 220.294L334.169 240.281Z" fill="#EDEDED"/>
<path d="M333.175 437.027L299.58 456.425L265.997 437.036V240.817L299.578 221.423L333.175 240.855V437.027Z" stroke="#333333" stroke-width="2"/>
<path d="M436.436 378.544L401.843 398.519L367.262 378.554V259.908L401.841 239.924L436.436 259.895V378.544Z" fill="white"/>
<path d="M401.844 279.827V398.517L367.262 378.555V259.907L401.844 279.827Z" fill="#A1A1A1"/>
<path d="M436.42 259.883L401.844 279.827L367.263 259.907L401.838 239.928L436.42 259.883Z" fill="#EDEDED"/>
<path d="M435.438 377.968L401.843 397.366L368.26 377.977V260.483L401.842 241.081L435.438 260.467V377.968Z" stroke="#333333" stroke-width="2"/>
<path d="M231.897 378.544L197.304 398.519L162.723 378.554V259.908L197.303 239.924L231.897 259.895V378.544Z" fill="white"/>
<path d="M197.305 279.827V398.517L162.723 378.555V259.907L197.305 279.827Z" fill="#A1A1A1"/>
<path d="M231.881 259.883L197.305 279.827L162.724 259.907L197.299 239.928L231.881 259.883Z" fill="#EDEDED"/>
<path d="M230.899 377.968L197.304 397.366L163.721 377.977V260.483L197.303 241.081L230.899 260.467V377.968Z" stroke="#333333" stroke-width="2"/>
<path d="M470.507 201.444L435.926 221.407L299.595 142.695L163.266 221.396L128.664 201.445L128.665 161.504L299.583 62.8149L470.507 161.508V201.444Z" fill="white"/>
<path d="M299.583 62.8149L470.507 161.508L435.946 181.5L299.594 102.778L163.248 181.451L128.664 161.504L299.583 62.8149Z" fill="url(#paint0_linear_514_1634)"/>
<path d="M300.593 140.966L299.595 140.389L298.596 140.966L163.265 219.091L130.66 200.292L130.661 162.657L299.583 65.1201L468.51 162.661V200.292L435.925 219.102L300.593 140.966Z" stroke="black" stroke-width="4"/>
</g>
<defs>
<linearGradient id="paint0_linear_514_1634" x1="128.664" y1="62.8149" x2="413.629" y2="262.62" gradientUnits="userSpaceOnUse">
<stop/>
<stop offset="1" stop-color="#333333"/>
</linearGradient>
<clipPath id="clip0_514_1634">
<rect width="600" height="600" fill="white"/>
</clipPath>
</defs>
</svg>
