<svg width="37" height="39" viewBox="0 0 37 39" fill="none" xmlns="http://www.w3.org/2000/svg">
<path fill-rule="evenodd" clip-rule="evenodd" d="M35.5552 8.93445C38.1894 13.5275 36.0047 17.2633 30.6863 17.2633H30.6843C25.3617 17.2633 18.8914 13.5253 16.2594 8.93445C13.6274 4.34359 15.8078 0.609863 21.1304 0.609863C26.453 0.609863 32.9212 4.3415 35.5552 8.93445ZM12.316 11.2161C14.9752 15.7923 14.9752 23.2702 12.316 27.8695C9.64845 32.4812 5.32936 32.5 2.67017 27.9238C0.0109834 23.3476 0.0109834 15.8759 2.67017 11.2704C5.32936 6.66493 9.6568 6.63984 12.316 11.2161ZM30.6867 21.7365C25.3663 21.7365 18.8981 25.4724 16.2619 30.0654C13.6258 34.6582 15.8125 38.39 21.133 38.39C26.4534 38.39 32.9216 34.6562 35.5578 30.0654C38.194 25.4745 36.0073 21.7365 30.6889 21.7365H30.6867Z" fill="#FFACEA"/>
</svg>
