<svg width="40" height="40" viewBox="0 0 40 40" fill="none" xmlns="http://www.w3.org/2000/svg">
<path d="M19.9945 3.87085C20.3558 3.87085 20.7654 3.91601 20.7654 3.91601C19.5533 5.36984 18.8228 7.1644 18.6751 9.05149C16.3912 9.43357 14.2885 10.5337 12.6724 12.1922C11.0563 13.8506 10.0109 15.981 9.68801 18.2741C7.60091 18.4999 5.23962 19.4547 3.88156 20.8192C3.55898 11.4579 10.7332 3.87085 19.9945 3.87085ZM22.317 31.9934C21.8898 32.0566 21.4586 32.0878 21.0267 32.087C20.2814 32.0781 19.5376 32.0166 18.8009 31.9031C18.2253 33.2889 17.4658 34.5909 16.5428 35.7741C13.6477 35.1356 10.9846 33.7115 8.84598 31.6583C6.70738 29.6051 5.17607 27.0021 4.42027 24.1354C5.87511 22.4096 9.2364 21.4096 11.3235 21.4096C15.7751 21.4096 18.1364 23.7708 18.9558 27.4515C16.2751 26.7257 14.6848 25.2257 13.6396 22.9999C13.0288 22.7781 12.3829 22.6688 11.7332 22.6773C11.1469 22.6749 10.5641 22.7675 10.0074 22.9515C11.188 27.4515 15.5493 30.8128 20.8622 30.8128C25.7687 30.8128 27.8558 28.316 27.8558 28.316V24.4967C27.8558 24.4967 25.4493 26.9967 22.4525 27.4967C22.1154 25.1634 21.0298 23.0027 19.3591 21.3395C17.6883 19.6764 15.5227 18.6006 13.188 18.2741C13.959 14.4579 16.8654 12.3225 20.817 12.3225C24.7687 12.3225 27.9493 15.1838 27.9493 15.1838V11.4128C27.9493 11.4128 25.9041 9.50311 22.2719 9.09666C22.3622 7.41924 23.4525 5.32569 24.6332 4.55149C29.5816 6.09666 34.3525 10.2773 35.7138 16.3644C35.7138 16.3644 33.5332 18.545 29.4461 18.545C26.0848 18.545 23.9622 16.8644 22.7687 13.9128C22.1426 13.6898 21.4816 13.5805 20.817 13.5902C20.1968 13.5834 19.5808 13.6928 19.0009 13.9128C20.317 18.6386 24.4848 21.816 29.1299 21.816C33.6719 21.816 36.1235 19.7289 36.1235 19.7289C36.1235 29.1773 28.9009 35.9483 20.317 36.1289C21.317 35.1612 22.088 33.0386 22.317 31.9934Z" fill="white"/>
</svg>
