<svg width="600" height="600" viewBox="0 0 600 600" fill="none" xmlns="http://www.w3.org/2000/svg">
<g clip-path="url(#clip0_498_1071)">
<path d="M600 0.0458984H0V599.048H600V0.0458984Z" fill="white"/>
<path fill-rule="evenodd" clip-rule="evenodd" d="M231.687 456.414L299.984 495.775L368.279 456.408L435.542 495.2L437.542 496.353L435.542 497.506L299.982 575.621L164.401 497.5L162.401 496.348L164.401 495.195L231.687 456.414ZM336.635 476.954L368.278 458.714L399.9 476.95L368.26 495.186L336.635 476.954ZM334.635 478.107L302.482 496.64L334.112 514.867L366.26 496.338L334.635 478.107ZM299.468 497.782L299.984 498.08L300.482 497.793L332.112 516.019L299.993 534.531L267.844 516.006L299.468 497.782ZM297.468 496.63L265.338 478.113L233.7 496.33L265.844 514.853L297.468 496.63ZM263.338 476.96L231.687 458.719L200.063 476.946L231.699 495.177L263.338 476.96ZM198.063 478.099L166.402 496.347L198.023 514.567L229.698 496.329L198.063 478.099ZM200.024 515.719L232.183 534.249L263.844 516.006L231.699 497.482L200.024 515.719ZM234.183 535.403L266.336 553.929L297.992 535.684L265.844 517.158L234.183 535.403ZM268.337 555.082L299.982 573.315L331.639 555.073L299.993 536.836L268.337 555.082ZM333.639 553.921L365.763 535.41L334.113 517.172L301.993 535.684L333.639 553.921ZM367.763 534.256L399.907 515.734L368.26 497.491L336.113 516.019L367.763 534.256ZM401.907 514.581L433.542 496.352L401.899 478.103L370.26 496.339L401.907 514.581Z" fill="#A1A1A1"/>
<path d="M368.254 299.547L368.266 181.469" stroke="black" stroke-dasharray="4 4"/>
<path d="M231.686 299.547L231.698 181.469" stroke="black" stroke-dasharray="4 4"/>
<path d="M299.977 338.93L299.989 220.854" stroke="black" stroke-dasharray="4 4"/>
<path d="M437.072 417.919L300.002 496.925L162.928 417.919V338.633L231.717 298.987L300.002 338.341L368.279 298.98L437.072 338.614V417.919Z" fill="white"/>
<path d="M368.279 298.98L437.072 338.614L300.002 417.514L162.928 338.633L231.717 298.987L300.002 338.341L368.279 298.98Z" fill="#EDEDED"/>
<path d="M162.928 417.92V338.634L300.002 417.517V496.925L162.928 417.92Z" fill="#A1A1A1"/>
<path d="M299.002 340.07L300.002 340.648L301.002 340.07L368.28 301.287L435.072 339.768V416.768L300.002 494.62L164.928 416.767V339.787L231.717 301.293L299.002 340.07Z" stroke="black" stroke-width="4"/>
<path d="M368.765 181.77L300.002 221.401L231.201 181.76V102.458L299.976 62.8254L368.765 102.471V181.77Z" fill="white"/>
<path d="M368.769 102.476L300.019 142.112L231.203 102.457L299.976 62.824L368.769 102.476Z" fill="url(#paint0_linear_498_1071)"/>
<path d="M366.765 180.617L300.002 219.096L233.201 180.607V103.611L299.976 65.1309L366.765 103.624V180.617Z" stroke="black" stroke-width="4"/>
<path d="M163.929 260.471L129.278 280.446L94.6123 260.476V220.559L129.256 200.578L163.929 220.553V260.471Z" fill="white"/>
<path d="M162.929 259.895L129.278 279.292L95.6123 259.899V221.136L129.256 201.73L162.929 221.13V259.895Z" stroke="black" stroke-width="2"/>
<path d="M162.915 221.13L129.263 240.494M129.263 240.494L95.667 221.165M129.263 240.494V279.213" stroke="black" stroke-width="2"/>
<path d="M505.343 181.757L470.692 201.732L436.027 181.762V141.846L470.67 121.864L505.343 141.84V181.757Z" fill="white"/>
<path d="M504.343 181.181L470.692 200.58L437.027 181.185V142.423L470.671 123.017L504.343 142.417V181.181Z" stroke="black" stroke-width="2"/>
<path d="M504.33 142.417L470.678 161.78M470.678 161.78L437.081 142.453M470.678 161.78V200.5" stroke="black" stroke-width="2"/>
</g>
<defs>
<linearGradient id="paint0_linear_498_1071" x1="231.203" y1="62.824" x2="376.362" y2="124.134" gradientUnits="userSpaceOnUse">
<stop/>
<stop offset="1" stop-color="#333333"/>
</linearGradient>
<clipPath id="clip0_498_1071">
<rect width="600" height="600" fill="white"/>
</clipPath>
</defs>
</svg>
