<svg width="56" height="56" viewBox="0 0 56 56" fill="none" xmlns="http://www.w3.org/2000/svg">
<rect width="56" height="56" rx="28" fill="black"/>
<path d="M28 14.6665V41.3332" stroke="white" stroke-width="2.66667" stroke-linecap="round" stroke-linejoin="round"/>
<path d="M34.6667 18.6665H24.6667C23.429 18.6665 22.242 19.1582 21.3668 20.0333C20.4917 20.9085 20 22.0955 20 23.3332C20 24.5708 20.4917 25.7578 21.3668 26.633C22.242 27.5082 23.429 27.9998 24.6667 27.9998H31.3333C32.571 27.9998 33.758 28.4915 34.6332 29.3667C35.5083 30.2418 36 31.4288 36 32.6665C36 33.9042 35.5083 35.0912 34.6332 35.9663C33.758 36.8415 32.571 37.3332 31.3333 37.3332H20" stroke="white" stroke-width="2.66667" stroke-linecap="round" stroke-linejoin="round"/>
</svg>
