<svg width="600" height="600" viewBox="0 0 600 600" fill="none" xmlns="http://www.w3.org/2000/svg">
<g clip-path="url(#clip0_498_1218)">
<path d="M599.582 0.0458984H0.580078V599.048H599.582V0.0458984Z" fill="white"/>
<path d="M266.482 476.952L231.889 496.927L197.307 476.961V358.315L231.887 338.332L266.482 358.302V476.952Z" fill="white"/>
<path d="M231.89 378.234V496.924L197.307 476.962V358.314L231.89 378.234Z" fill="#A1A1A1"/>
<path d="M266.466 358.291L231.89 378.233L197.309 358.314L231.884 338.335L266.466 358.291Z" fill="#EDEDED"/>
<path d="M265.484 476.375L231.889 495.774L198.305 476.385V358.89L231.888 339.488L265.484 358.874V476.375Z" stroke="#333333" stroke-width="2"/>
<path d="M368.737 417.91L334.144 437.885L299.562 417.92V220.552L334.146 200.574L368.737 220.586V417.91Z" fill="white"/>
<path d="M334.145 240.511V437.883L299.562 417.921V220.544L334.145 240.511Z" fill="#A1A1A1"/>
<path d="M368.733 220.587L334.146 240.511L299.566 220.544L334.139 200.601L368.733 220.587Z" fill="#EDEDED"/>
<path d="M367.74 417.335L334.145 436.732L300.562 417.344V221.125L334.143 201.731L367.74 221.163V417.335Z" stroke="#333333" stroke-width="2"/>
<path d="M470.996 358.882L436.403 378.857L401.82 358.891V82.7869L436.405 62.7891L470.995 82.8014L470.996 358.882Z" fill="white"/>
<path d="M436.404 102.707V378.853L401.82 358.892V82.7905L436.404 102.707Z" fill="#A1A1A1"/>
<path d="M470.981 82.8025L436.405 102.707L401.818 82.7909L436.397 62.7969L470.981 82.8025Z" fill="url(#paint0_linear_498_1218)"/>
<path d="M468.999 357.729L436.403 376.551L403.817 357.738V83.9359L436.4 65.103L468.999 83.9561V357.729Z" stroke="black" stroke-width="4"/>
<path d="M164.231 535.969L129.639 555.944L95.0566 535.978V496.04L129.617 476.075L164.231 496.051V535.969Z" fill="white"/>
<path d="M129.64 515.985V555.94L95.0566 535.978V496.04L129.64 515.985Z" fill="#A1A1A1"/>
<path d="M164.23 496.052L129.64 516.007L95.0566 496.045L129.62 476.069L164.23 496.052Z" fill="#EDEDED"/>
<path d="M163.233 535.392L129.639 554.79L96.0547 535.402V496.616L129.617 477.228L163.233 496.627V535.392Z" stroke="#333333" stroke-width="2"/>
<path d="M129.64 496.925L163.709 338.875L231.888 358.748L265.97 201.117L334.084 220.771L368.252 63.4419L436.426 82.8294" stroke="black" stroke-dasharray="4 4"/>
</g>
<defs>
<linearGradient id="paint0_linear_498_1218" x1="401.818" y1="62.7969" x2="474.825" y2="93.5957" gradientUnits="userSpaceOnUse">
<stop/>
<stop offset="1" stop-color="#333333"/>
</linearGradient>
<clipPath id="clip0_498_1218">
<rect width="600" height="600" fill="white"/>
</clipPath>
</defs>
</svg>
