<svg width="41" height="36" viewBox="0 0 41 36" fill="none" xmlns="http://www.w3.org/2000/svg">
<path fill-rule="evenodd" clip-rule="evenodd" d="M9.22437 15.3325L20.3121 26.6192L31.2814 15.4531L40.2753 24.6084L29.8255 35.2457L27.1373 32.5822L34.9704 24.6084L31.2814 20.8531L20.3121 32.0193L9.22437 20.7326L5.58024 24.4422L13.5325 32.5372L10.8443 35.2008L0.275391 24.4422L9.22437 15.3325Z" fill="white"/>
<path fill-rule="evenodd" clip-rule="evenodd" d="M31.3263 20.7322L20.2386 9.44559L9.26935 20.6118L0.275391 11.4564L10.7251 0.819092L13.4134 3.48267L5.58023 11.4564L9.26935 15.2117L20.2386 4.04549L31.3263 15.3322L34.9704 11.6226L27.0181 3.52758L29.7064 0.863994L40.2753 11.6226L31.3263 20.7322Z" fill="white"/>
<path fill-rule="evenodd" clip-rule="evenodd" d="M18.584 34.9805V27.8694H22.2047V34.9805H18.584Z" fill="white"/>
<path fill-rule="evenodd" clip-rule="evenodd" d="M18.584 8.19528V1.08423H22.2047V8.19528H18.584Z" fill="white"/>
</svg>
