<svg width="421" height="282" viewBox="0 0 421 282" fill="none" xmlns="http://www.w3.org/2000/svg">
<g style="mix-blend-mode:luminosity">
<path d="M259.826 94.994C266.008 93.9576 272.125 93.0324 277.763 90.1318C280.901 88.5166 283.959 86.5403 286.584 84.1577C286.618 84.1269 286.65 84.0965 286.684 84.0657C286.684 84.0657 284.544 85.1433 281.868 86.2218C279.569 87.1484 276.875 87.3764 274.438 87.6621C269.233 88.2728 263.695 88.7548 259.117 85.6829C259.417 85.8847 263.023 83.4314 263.308 83.2682C268.715 80.1616 274.077 76.8063 276.782 70.8626C276.782 70.8626 273.571 73.0188 270.358 74.3657C267.147 75.7126 260.722 77.3298 260.722 77.3298C260.722 77.3298 265.541 71.6719 266.882 68.9768C268.223 66.2823 270.896 59.2761 270.361 60.3531C269.826 61.43 268.488 61.9693 266.347 64.1255C264.206 66.2813 258.05 68.9754 258.317 68.4365C259.94 65.1667 262.101 62.0558 263.131 58.5255C263.733 56.4673 264.138 53.8217 264.741 52C264.474 52.8083 262.335 54.6948 260.192 57.6583C258.05 60.6217 254.304 63.5865 254.304 63.5865V60.0837C254.304 60.0837 254.036 56.85 251.627 55.7724C249.218 54.6948 246.274 58.4672 246.274 58.4672C246.274 58.4672 249.754 58.7365 250.021 60.0837C250.289 61.4307 247.077 64.3948 247.077 64.3948L248.147 66.818C248.147 66.818 248.147 82.7158 236.103 87.2965C224.059 91.8772 224.327 94.033 223.256 95.6496C221.545 98.2346 223.838 101.9 222.525 104.513C222.336 104.891 222.1 105.254 221.762 105.508C220.676 106.331 219.254 106.088 218.167 105.357C217.57 104.803 217.17 103.997 216.767 103.087C215.055 99.2224 211.831 92.1828 211.831 92.1828C211.831 92.1828 216.118 90.1908 218.097 89.8589C220.076 89.5267 220.076 92.8466 220.076 92.8466L221.067 90.5224C222.058 88.1981 221.067 86.8702 220.737 85.8745C220.407 84.8789 218.099 83.5506 210.514 80.2307C208.051 79.1524 205.257 78.4782 202.577 79.0306C201.553 79.2442 200.052 79.6875 199.391 80.5328C200.976 80.5272 202.468 80.1252 204.096 80.329C205.767 80.5377 207.383 81.0691 208.854 81.8941H202.919C198.632 81.8941 195.664 87.5383 195.664 87.5383L198.306 85.2124C200.532 83.2518 203.451 83.8868 205.892 83.8848C204.491 83.8848 202.863 86.1917 202.249 87.2611C200.751 89.8632 200.855 92.8057 201.563 95.6404C201.625 95.6843 201.603 95.5768 201.603 95.5041C201.603 94.1762 203.252 92.8479 203.252 92.8479L202.592 96.4998C201.932 100.152 202.592 104.468 202.592 103.472C202.592 102.475 204.9 100.484 204.9 100.484V102.808C204.9 103.087 204.836 103.469 204.724 103.921C204.7 104.021 204.668 104.131 204.632 104.247C203.651 105.713 201.446 106.67 199.916 105.51C199.58 105.256 199.342 104.893 199.153 104.516C197.84 101.902 200.133 98.2369 198.422 95.6518C197.352 94.0346 197.619 91.8794 185.575 87.2984C173.53 82.7181 173.528 66.8203 173.528 66.8203L174.599 64.3971C174.599 64.3971 171.387 61.4326 171.655 60.0857C171.922 58.7388 175.401 58.4695 175.401 58.4695C175.401 58.4695 172.457 54.6968 170.049 55.7744C167.64 56.8523 167.372 60.0857 167.372 60.0857V63.5888C167.372 63.5888 163.628 60.624 161.486 57.6583C159.345 54.6925 157.204 52.8083 156.937 52C157.54 53.8217 157.947 56.4673 158.547 58.5255C159.576 62.0558 161.737 65.1667 163.361 68.4365C163.629 68.9754 157.473 66.2806 155.332 64.1255C153.191 61.9703 151.852 61.4307 151.317 60.3531C150.782 59.2755 153.459 66.2813 154.796 68.9768C156.135 71.6725 160.956 77.3298 160.956 77.3298C160.956 77.3298 154.527 75.712 151.316 74.365C148.104 73.0178 144.892 70.862 144.892 70.862C147.598 76.8053 152.962 80.1609 158.366 83.2676C158.649 83.4307 162.26 85.8831 162.556 85.6822C157.979 88.7541 152.44 88.2728 147.234 87.6615C144.798 87.3764 142.105 87.1468 139.806 86.2212C137.131 85.1413 134.989 84.065 134.989 84.065C135.022 84.0965 135.056 84.1269 135.09 84.1571C137.715 86.5396 140.772 88.5166 143.911 90.1302C149.549 93.0331 155.666 93.9576 161.847 94.994C162.06 95.0293 165.641 95.8661 165.768 95.6518C163.599 99.2922 146.207 104.767 141.246 104.963C145.306 105.488 149.35 106.05 153.436 106.353C158.137 106.702 163.3 107.129 167.912 105.891C175.941 103.735 172.998 104.544 172.998 104.544C172.592 104.655 171.546 107.019 171.284 107.395C169.933 109.341 168.348 111.14 166.456 112.563C162.088 115.847 157.472 118.932 152.389 120.979C152.226 121.045 152.093 121.101 152.019 121.252C152.785 121.764 154.346 121.48 155.216 121.441C162.834 121.096 169.004 118.181 175.478 114.44C176.398 113.906 177.587 113.396 178.351 112.626L179.154 111.818C177.889 114.206 176.959 116.836 176.258 119.44C174.926 124.369 175.147 129.369 175.334 134.429C175.379 135.647 175.38 136.871 175.396 138.09C175.4 138.427 175.459 138.758 175.458 139.096C176.428 137.748 177.05 135.879 177.794 134.362C178.573 132.783 179.358 131.209 180.175 129.65C181.362 127.382 182.518 124.789 184.238 122.865C186.645 120.17 188.253 118.285 188.253 118.285C188.253 118.285 188.52 134.182 190.126 139.302L191.731 144.421C191.862 139.701 191.858 134.661 193.312 130.129C194.137 127.564 195.631 125.126 197.084 122.865C197.843 124.803 198.539 126.775 199.144 128.768C200.215 132.295 199.87 135.222 199.013 138.77C198.518 140.83 198.032 143.051 197.084 144.96C196.014 147.116 200.831 141.996 201.634 140.649C202.437 139.302 205.916 132.565 205.649 129.602C205.381 126.639 207.523 129.332 208.056 131.488C208.589 133.644 209.661 137.417 206.718 143.075C203.774 148.733 193.872 159.513 193.872 159.513L201.099 154.663L196.548 167.866L204.845 158.166L200.831 173.525C200.831 173.525 207.191 163.002 207.522 161.669C207.753 160.739 210.177 177.474 210.837 182.071C211.496 177.474 213.92 160.739 214.151 161.669C214.482 163.002 220.842 173.525 220.842 173.525L216.828 158.166L225.125 167.866L220.575 154.663L227.801 159.513C227.801 159.513 217.899 148.735 214.955 143.076C212.01 137.418 213.081 133.646 213.617 131.49C214.152 129.334 216.293 126.64 216.023 129.603C215.754 132.567 219.235 139.303 220.038 140.65C220.841 141.997 225.658 147.117 224.588 144.962C223.64 143.052 223.157 140.832 222.659 138.772C221.803 135.224 221.456 132.297 222.528 128.77C223.133 126.774 223.829 124.805 224.588 122.866C226.041 125.128 227.536 127.561 228.36 130.131C229.814 134.662 229.811 139.702 229.941 144.423L231.546 139.303C233.152 134.184 233.419 118.286 233.419 118.286C233.419 118.286 235.025 120.172 237.434 122.867C239.154 124.791 240.31 127.384 241.497 129.651C242.313 131.21 243.102 132.787 243.878 134.364C244.623 135.88 245.245 137.75 246.214 139.097C246.214 138.759 246.272 138.428 246.276 138.092C246.292 136.872 246.294 135.649 246.339 134.43C246.525 129.37 246.746 124.371 245.414 119.441C244.71 116.837 243.786 114.208 242.519 111.82L243.322 112.628C244.085 113.397 245.27 113.911 246.194 114.442C252.667 118.183 258.839 121.098 266.456 121.442C267.325 121.481 268.887 121.766 269.654 121.253C269.582 121.102 269.446 121.047 269.284 120.981C264.201 118.934 259.585 115.849 255.215 112.564C253.323 111.139 251.739 109.342 250.388 107.397C250.126 107.019 249.08 104.655 248.675 104.546C248.675 104.546 245.73 103.737 253.76 105.893C258.372 107.131 263.535 106.703 268.236 106.355C272.321 106.052 276.366 105.49 280.426 104.964C275.464 104.769 258.072 99.2935 255.9 95.6532C256.032 95.8661 259.613 95.0293 259.826 94.994Z" fill="#595959"/>
<path d="M115.309 204.162L116.82 218.118C116.882 218.673 116.912 219.165 116.912 219.566C116.912 220.922 116.511 221.384 114.383 221.445V221.969C115.555 221.938 117.498 221.907 119.503 221.907C121.508 221.907 123.574 221.938 124.932 221.969V221.445C122.526 221.353 122.248 220.583 121.971 218.118L120.583 205.548C120.552 205.24 120.521 204.778 120.521 204.47C120.521 202.683 120.984 201.851 123.482 201.851V201.327C122.032 201.358 120.706 201.358 119.534 201.358C117.652 201.358 116.141 201.327 115.185 201.296L110.867 213.835L106.395 201.296C105.377 201.327 103.865 201.358 102.292 201.358C100.719 201.358 99.0844 201.358 97.8816 201.327V201.851C100.257 201.851 100.812 202.683 100.812 204.47C100.812 204.808 100.781 205.178 100.75 205.548L99.1152 218.21C98.8069 220.49 98.2207 221.415 96 221.476V221.969C97.1412 221.938 98.2823 221.907 99.5778 221.907C100.873 221.907 102.261 221.938 103.865 221.969V221.445C101.089 221.353 100.38 221.014 100.38 219.289C100.38 218.919 100.411 218.395 100.473 217.902L101.984 204.069L108.738 222.031H108.954L115.309 204.162ZM140.282 220.86V220.552L140.066 220.521C139.449 220.429 139.295 220.09 139.295 219.196V213.497C139.295 210.231 139.356 208.691 139.418 207.674L139.295 207.612C137.722 208.105 135.501 208.598 133.527 208.752V209.122L133.835 209.214C134.699 209.461 134.792 209.954 134.792 210.477V219.843C134.452 219.905 133.897 219.905 133.681 219.905C131.707 219.905 131.244 218.734 131.244 215.869V213.497C131.244 210.231 131.306 208.691 131.368 207.674L131.244 207.612C129.671 208.105 127.42 208.598 125.446 208.752V209.122L125.754 209.214C126.618 209.461 126.71 209.954 126.71 210.477V218.241C126.71 220.521 127.944 222.277 130.042 222.277C131.553 222.277 133.527 221.168 134.792 220.12C134.761 220.983 134.699 221.661 134.607 222.216L134.73 222.277C136.118 221.815 138.678 221.261 140.282 220.86ZM148.484 221.507L148.299 221.476C147.435 221.322 147.435 221.168 147.435 218.765V204.439C147.435 201.912 147.528 199.818 147.589 199.17L147.435 199.109C146.078 199.633 143.302 200.495 141.76 200.834V200.988L142.562 202.128C142.932 202.652 142.932 203.052 142.932 203.453V218.765C142.932 221.168 142.932 221.322 142.068 221.476L141.883 221.507V221.969C142.562 221.938 143.888 221.907 145.183 221.907C146.51 221.907 147.805 221.938 148.484 221.969V221.507ZM155.035 222.277C157.409 222.277 159.383 220.644 160.463 218.827L160.34 218.673C159.445 219.196 158.643 219.32 157.841 219.32C156.577 219.32 155.466 219.135 155.466 217.872V209.646L159.229 209.707C159.599 209.399 160.155 208.321 160.155 207.797L155.466 207.951C155.466 207.027 155.59 205.363 155.651 204.839L155.466 204.747C153.986 206.195 151.426 208.105 149.729 209.122V209.245L150.994 210.816C150.963 212.326 150.963 215.314 150.963 219.135C150.963 221.014 152.69 222.277 155.035 222.277ZM167.455 202.96C167.455 201.512 166.313 200.465 164.987 200.465C163.661 200.465 162.52 201.512 162.52 202.96C162.52 204.408 163.661 205.456 164.987 205.456C166.313 205.456 167.455 204.408 167.455 202.96ZM168.134 221.507L167.948 221.476C167.085 221.322 167.085 221.168 167.085 218.765V212.141C167.085 209.615 167.146 208.105 167.208 207.458L167.054 207.396C165.758 208.013 163.106 209.029 161.564 209.492V209.646L162.211 210.755C162.581 211.34 162.581 211.679 162.581 212.079V218.765C162.581 221.168 162.581 221.322 161.718 221.476L161.533 221.507V221.969C162.211 221.938 163.538 221.907 164.833 221.907C166.16 221.907 167.455 221.938 168.134 221.969V221.507ZM169.59 215.499C169.59 219.566 172.397 222.277 176.283 222.277C178.813 222.277 181.404 220.49 182.267 217.841L182.113 217.748C181.249 218.827 180.108 219.258 178.998 219.258C175.944 219.258 174.001 216.947 174.001 213.25C174.001 210.601 175.327 208.505 177.055 208.505C178.751 208.505 178.042 211.648 180.293 211.648C181.126 211.648 181.959 210.939 181.959 210.046C181.959 208.29 179.614 207.489 177.733 207.489C173.6 207.489 169.59 210.785 169.59 215.499ZM191.36 207.489C187.258 207.489 183.464 210.57 183.464 214.976C183.464 219.32 187.258 222.277 191.36 222.277C195.493 222.277 199.287 219.196 199.287 214.79C199.287 210.447 195.493 207.489 191.36 207.489ZM191.36 221.599C189.479 221.599 188.491 218.457 188.491 214.606C188.491 210.57 189.479 208.167 191.36 208.167C193.272 208.167 194.259 211.309 194.259 215.16C194.259 219.196 193.272 221.599 191.36 221.599ZM206.847 202.96C206.847 201.512 205.706 200.465 204.38 200.465C203.054 200.465 201.912 201.512 201.912 202.96C201.912 204.408 203.054 205.456 204.38 205.456C205.706 205.456 206.847 204.408 206.847 202.96ZM207.526 221.507L207.341 221.476C206.477 221.322 206.477 221.168 206.477 218.765V212.141C206.477 209.615 206.539 208.105 206.601 207.458L206.447 207.396C205.151 208.013 202.498 209.029 200.956 209.492V209.646L201.604 210.755C201.974 211.34 201.974 211.679 201.974 212.079V218.765C201.974 221.168 201.974 221.322 201.11 221.476L200.925 221.507V221.969C201.604 221.938 202.93 221.907 204.225 221.907C205.552 221.907 206.847 221.938 207.526 221.969V221.507ZM224.035 221.507L223.85 221.476C222.986 221.322 222.986 221.168 222.986 218.765V211.525C222.986 209.183 221.475 207.489 219.5 207.489C217.897 207.489 215.954 208.906 214.658 209.923C214.689 209.183 214.72 208.013 214.782 207.458L214.627 207.396C213.332 208.013 210.679 209.029 209.137 209.492V209.646L209.785 210.755C210.155 211.34 210.155 211.679 210.155 212.079V218.765C210.155 221.168 210.155 221.322 209.291 221.476L209.106 221.507V221.969C209.785 221.938 211.111 221.907 212.407 221.907C213.733 221.907 215.028 221.938 215.707 221.969V221.507L215.522 221.476C214.658 221.322 214.658 221.168 214.658 218.765V210.324C215.121 210.138 215.614 210.108 215.923 210.108C217.804 210.108 218.483 211.895 218.483 214.637V218.765C218.483 221.168 218.483 221.322 217.619 221.476L217.434 221.507V221.969C218.113 221.938 219.439 221.907 220.734 221.907C222.061 221.907 223.356 221.938 224.035 221.969V221.507ZM245.02 219.535C240.826 219.535 237.556 215.961 237.556 210.508C237.556 205.271 240.487 202.159 244.157 202.159C246.008 202.159 247.365 202.929 248.352 204.069C249.215 205.024 249.986 206.503 250.542 208.013L250.85 207.828L250.141 202.56C248.136 201.574 246.347 201.019 243.972 201.019C237.772 201.019 232.066 205.24 232.066 212.049C232.066 218.457 237.279 222.277 242.892 222.277C245.761 222.277 248.537 221.199 250.511 219.258L251.806 215.592L251.467 215.438C250.048 218.334 247.858 219.535 245.02 219.535ZM253.164 218.857C253.164 220.86 254.521 222.154 256.434 222.154C258.068 222.154 259.148 220.798 259.858 219.905C260.413 221.261 261.492 222.185 263.312 222.185C265.039 222.185 266.397 220.583 266.551 219.196L266.458 219.135C266.211 219.32 265.903 219.505 265.44 219.505C264.638 219.505 264.268 219.104 264.268 218.118C264.268 216.239 264.422 212.788 264.422 210.631C264.422 208.259 261.708 207.489 259.95 207.489C256.804 207.489 253.411 211.032 253.411 213.096C253.411 213.343 253.503 213.435 253.627 213.435C254.09 213.435 255.94 213.065 256.372 212.942C256.218 212.388 256.094 211.617 256.094 210.939C256.094 210.077 256.465 209.646 257.359 209.646C259.179 209.646 259.919 210.816 259.919 211.833V214.329L255.786 216.085C254.151 216.793 253.164 217.255 253.164 218.857ZM259.888 214.852L259.858 219.566C259.673 219.628 259.518 219.659 259.302 219.659C258.284 219.659 257.575 219.011 257.575 217.687C257.575 216.763 258.007 216.269 258.593 215.838L259.888 214.852ZM275.352 229.055L274.026 228.963C273.193 228.901 273.162 228.747 273.162 226.344V221.784C274.118 222.123 274.828 222.277 275.815 222.277C279.67 222.277 283.711 219.32 283.711 213.897C283.711 210.077 281.459 207.489 278.159 207.489C275.969 207.489 274.18 209.122 273.162 209.984C273.162 209.337 273.224 208.043 273.285 207.458L273.131 207.396C271.836 208.013 269.183 209.06 267.641 209.492V209.646L268.289 210.755C268.659 211.34 268.659 211.679 268.659 212.079V226.375C268.659 228.778 268.659 228.932 267.795 229.086L267.61 229.117V229.579C268.474 229.548 269.584 229.517 271.065 229.517C272.545 229.517 274.365 229.548 275.352 229.579V229.055ZM273.162 217.224V210.262C273.625 210.138 274.18 210.108 274.642 210.108C277.172 210.108 278.837 212.388 278.837 215.653C278.837 219.196 277.542 221.353 275.568 221.353C274.057 221.353 273.162 220.275 273.162 217.224ZM291.264 202.96C291.264 201.512 290.123 200.465 288.797 200.465C287.471 200.465 286.329 201.512 286.329 202.96C286.329 204.408 287.471 205.456 288.797 205.456C290.123 205.456 291.264 204.408 291.264 202.96ZM291.943 221.507L291.758 221.476C290.894 221.322 290.894 221.168 290.894 218.765V212.141C290.894 209.615 290.956 208.105 291.018 207.458L290.863 207.396C289.568 208.013 286.915 209.029 285.373 209.492V209.646L286.021 210.755C286.391 211.34 286.391 211.679 286.391 212.079V218.765C286.391 221.168 286.391 221.322 285.528 221.476L285.342 221.507V221.969C286.021 221.938 287.347 221.907 288.643 221.907C289.969 221.907 291.264 221.938 291.943 221.969V221.507ZM298.489 222.277C300.864 222.277 302.838 220.644 303.918 218.827L303.794 218.673C302.9 219.196 302.098 219.32 301.296 219.32C300.031 219.32 298.921 219.135 298.921 217.872V209.646L302.684 209.707C303.054 209.399 303.609 208.321 303.609 207.797L298.921 207.951C298.921 207.027 299.044 205.363 299.106 204.839L298.921 204.747C297.44 206.195 294.881 208.105 293.184 209.122V209.245L294.449 210.816C294.418 212.326 294.418 215.314 294.418 219.135C294.418 221.014 296.145 222.277 298.489 222.277ZM305.015 218.857C305.015 220.86 306.372 222.154 308.284 222.154C309.919 222.154 310.999 220.798 311.708 219.905C312.263 221.261 313.342 222.185 315.162 222.185C316.89 222.185 318.247 220.583 318.401 219.196L318.308 219.135C318.062 219.32 317.753 219.505 317.291 219.505C316.489 219.505 316.119 219.104 316.119 218.118C316.119 216.239 316.273 212.788 316.273 210.631C316.273 208.259 313.558 207.489 311.8 207.489C308.654 207.489 305.261 211.032 305.261 213.096C305.261 213.343 305.354 213.435 305.477 213.435C305.94 213.435 307.791 213.065 308.222 212.942C308.068 212.388 307.945 211.617 307.945 210.939C307.945 210.077 308.315 209.646 309.21 209.646C311.029 209.646 311.769 210.816 311.769 211.833V214.329L307.636 216.085C306.002 216.793 305.015 217.255 305.015 218.857ZM311.739 214.852L311.708 219.566C311.523 219.628 311.368 219.659 311.153 219.659C310.135 219.659 309.426 219.011 309.426 217.687C309.426 216.763 309.857 216.269 310.443 215.838L311.739 214.852ZM326 221.507L325.815 221.476C324.951 221.322 324.951 221.168 324.951 218.765V204.439C324.951 201.912 325.044 199.818 325.106 199.17L324.951 199.109C323.594 199.633 320.818 200.495 319.276 200.834V200.988L320.078 202.128C320.448 202.652 320.448 203.052 320.448 203.453V218.765C320.448 221.168 320.448 221.322 319.584 221.476L319.399 221.507V221.969C320.078 221.938 321.404 221.907 322.7 221.907C324.026 221.907 325.321 221.938 326 221.969V221.507Z" fill="#595959"/>
</g>
</svg>
