<svg width="500" height="134" viewBox="0 0 500 134" fill="none" xmlns="http://www.w3.org/2000/svg">
<g style="mix-blend-mode:luminosity" opacity="0.7">
<rect width="500" height="133.929" fill="white"/>
<g style="mix-blend-mode:luminosity" clip-path="url(#clip0_1715_526)">
<g style="mix-blend-mode:luminosity">
<path fill-rule="evenodd" clip-rule="evenodd" d="M108 81.5481L158.144 110.473L208.287 81.5481L158.144 52.6196L108 81.5481Z" fill="#B1BCFD"/>
</g>
<g style="mix-blend-mode:luminosity">
<path fill-rule="evenodd" clip-rule="evenodd" d="M108 71.9031L158.144 100.828L208.287 71.9031L158.144 42.9746L108 71.9031Z" fill="#6076FA"/>
</g>
<g style="mix-blend-mode:luminosity">
<path fill-rule="evenodd" clip-rule="evenodd" d="M124.715 52.6203H108V62.2625L158.144 91.185L208.288 62.2625H208.321V52.6183H191.569L158.14 33.334L124.711 52.6203H124.715Z" fill="#1B37F2"/>
</g>
<g style="mix-blend-mode:luminosity">
<path fill-rule="evenodd" clip-rule="evenodd" d="M158.144 23.6943L108 52.6189L158.144 81.5454L208.287 52.6189L158.144 23.6943Z" fill="url(#paint0_linear_1715_526)"/>
</g>
<g style="mix-blend-mode:luminosity">
<path fill-rule="evenodd" clip-rule="evenodd" d="M152.572 46.1918L159.408 50.1362L147.001 49.4045L141.427 52.6192L158.144 62.2614L163.715 59.0467L156.623 54.9543L169.285 55.8339L174.858 52.6192L158.144 42.9771L152.572 46.1918Z" fill="url(#paint1_linear_1715_526)"/>
</g>
<path fill-rule="evenodd" clip-rule="evenodd" d="M227.96 81.2162C227.854 81.1282 227.768 81.018 227.709 80.8933C227.65 80.7685 227.619 80.6323 227.619 80.4943V53.6722C227.619 53.3685 227.731 53.1219 227.96 52.9306C228.18 52.7405 228.462 52.638 228.753 52.6427H233.551C234.306 52.6427 234.821 52.905 235.089 53.4257L246.142 69.2724V53.6722C246.142 53.3685 246.254 53.1219 246.483 52.9306C246.702 52.741 246.984 52.6385 247.274 52.6427H252.707C253.006 52.6306 253.297 52.7337 253.522 52.9306C253.733 53.1219 253.837 53.3685 253.837 53.6722V80.4549C253.84 80.5967 253.814 80.7376 253.759 80.8686C253.705 80.9997 253.624 81.118 253.522 81.2162C253.414 81.3203 253.286 81.4016 253.146 81.4551C253.006 81.5087 252.857 81.5334 252.707 81.5278H247.862C247.197 81.5278 246.7 81.2655 246.369 80.7409L235.316 65.4759V80.4943C235.316 80.7685 235.212 81.0091 235.001 81.2142C234.893 81.3186 234.765 81.4 234.624 81.4536C234.484 81.5071 234.334 81.5317 234.184 81.5258H228.753C228.458 81.5293 228.173 81.4195 227.96 81.2162ZM279.63 70.509L275.419 59.6145L271.209 70.509H279.63ZM259.908 81.2576C259.819 81.1846 259.746 81.0933 259.696 80.9898C259.645 80.8864 259.617 80.7732 259.614 80.658C259.614 80.4943 259.63 80.3701 259.657 80.2873L270.301 53.7964C270.396 53.4614 270.605 53.1699 270.891 52.9721C271.193 52.7512 271.585 52.6388 272.069 52.6388H278.77C279.251 52.6388 279.646 52.7512 279.948 52.9721C280.249 53.1929 280.443 53.4651 280.537 53.7964L291.134 80.2873L291.225 80.658C291.225 80.8789 291.126 81.0781 290.929 81.2576C290.737 81.4326 290.486 81.5285 290.227 81.5258H284.659C283.932 81.5258 283.452 81.2379 283.208 80.658L281.441 76.4513H269.351L267.631 80.658C267.387 81.2379 266.89 81.5258 266.138 81.5258H260.565C260.32 81.5235 260.085 81.4275 259.908 81.2576ZM302.208 81.2162C302.102 81.1279 302.017 81.0176 301.958 80.8929C301.899 80.7682 301.868 80.6322 301.867 80.4943V71.6233L291.361 53.9641C291.299 53.8183 291.252 53.6662 291.223 53.5105C291.223 53.2876 291.321 53.0884 291.519 52.9089C291.71 52.7329 291.961 52.6375 292.221 52.6427H297.881C298.485 52.6427 299.015 52.9306 299.467 53.5105L305.94 64.1545L312.464 53.5085C312.625 53.2336 312.858 53.0077 313.137 52.8549C313.417 52.702 313.733 52.628 314.051 52.6407H319.708C319.982 52.6407 320.207 52.7314 320.39 52.9089C320.568 53.0884 320.662 53.2876 320.662 53.5085C320.662 53.6466 320.631 53.7964 320.568 53.9621L310.063 71.6233V80.4943C310.067 80.6359 310.038 80.7764 309.98 80.9052C309.921 81.0341 309.833 81.1478 309.724 81.2379C309.49 81.435 309.192 81.5383 308.886 81.5278H302.999C302.705 81.5308 302.421 81.419 302.208 81.2162ZM327.411 81.2162C327.305 81.128 327.22 81.0177 327.161 80.893C327.102 80.7683 327.071 80.6323 327.07 80.4943V53.6722C327.066 53.5307 327.095 53.3904 327.155 53.2618C327.214 53.1333 327.301 53.02 327.411 52.9306C327.631 52.7397 327.915 52.6372 328.206 52.6427H333.095C333.819 52.6427 334.347 52.9425 334.679 53.5499L342.649 66.5488L350.622 53.5519C350.952 52.9425 351.482 52.6427 352.204 52.6427H357.05C357.381 52.6427 357.663 52.7374 357.888 52.9306C357.998 53.02 358.085 53.1333 358.144 53.2618C358.204 53.3904 358.233 53.5307 358.229 53.6722V80.4943C358.233 80.6361 358.204 80.7769 358.145 80.9058C358.086 81.0347 357.998 81.1483 357.888 81.2379C357.654 81.4347 357.355 81.5379 357.05 81.5278H351.662C351.357 81.5382 351.058 81.4349 350.825 81.2379C350.715 81.1483 350.627 81.0347 350.568 80.9058C350.509 80.7769 350.48 80.6361 350.484 80.4943V65.0203L345.414 73.6448C345.019 74.2779 344.491 74.5954 343.826 74.5954H341.473C341.138 74.6115 340.807 74.5248 340.522 74.3469C340.261 74.1634 340.044 73.9234 339.887 73.6448L334.769 65.0203V80.4943C334.769 80.7705 334.663 81.0111 334.454 81.2162C334.346 81.3202 334.218 81.4014 334.077 81.4549C333.937 81.5084 333.787 81.5332 333.637 81.5278H328.206C327.91 81.532 327.625 81.4202 327.411 81.2162ZM370.936 80.7803C368.885 80.0112 367.337 79.0014 366.295 77.749C365.252 76.4986 364.706 75.1279 364.643 73.6429C364.643 73.422 364.739 73.2228 364.937 73.0453C365.134 72.8678 365.367 72.7771 365.641 72.7771H371.344C371.65 72.7634 371.954 72.8272 372.228 72.9625C372.455 73.0847 372.687 73.2721 372.932 73.5186C373.322 74.2345 373.956 74.8262 374.831 75.2936C375.707 75.761 376.871 75.9957 378.32 75.9957C380.04 75.9957 381.353 75.7492 382.259 75.2522C383.166 74.7572 383.617 74.0827 383.617 73.2307C383.624 72.9456 383.564 72.663 383.442 72.4052C383.32 72.1475 383.14 71.9216 382.915 71.7456C382.448 71.359 381.716 71.0159 380.72 70.7122C379.722 70.4084 378.245 70.0672 376.283 69.6827C372.656 68.9944 369.948 67.9826 368.151 66.6474C366.355 65.3142 365.459 63.409 365.459 60.9319C365.459 59.2555 365.97 57.7567 366.996 56.4353C368.025 55.1159 369.487 54.0824 371.392 53.3389C373.291 52.5973 375.512 52.2266 378.048 52.2266C380.673 52.2266 382.953 52.6407 384.886 53.4651C386.818 54.2915 388.29 55.3289 389.301 56.5812C390.311 57.8336 390.848 59.0642 390.907 60.2732C390.907 60.5197 390.818 60.7268 390.637 60.8905C390.451 61.0591 390.207 61.149 389.956 61.141H383.98C383.618 61.141 383.324 61.0858 383.097 60.9753C382.852 60.8487 382.642 60.6646 382.483 60.4389C382.306 59.8078 381.815 59.2693 381.014 58.8276C380.211 58.3897 379.223 58.1689 378.048 58.1689C376.689 58.1689 375.648 58.3897 374.922 58.8276C374.58 59.0202 374.297 59.3034 374.106 59.6461C373.914 59.9889 373.82 60.3778 373.835 60.7702C373.835 61.3461 374.038 61.8273 374.449 62.2119C374.855 62.5985 375.52 62.9495 376.439 63.2631C377.362 63.5826 378.681 63.9041 380.403 64.2334C383.211 64.7048 385.452 65.2886 387.126 65.9887C388.802 66.6888 390.033 67.598 390.818 68.7104C391.603 69.8247 391.995 71.221 391.995 72.9013C391.995 74.7434 391.414 76.3487 390.252 77.7076C389.088 79.0684 387.473 80.1157 385.404 80.8434C383.337 81.5731 380.975 81.936 378.32 81.936C375.449 81.936 372.989 81.5515 370.936 80.7803Z" fill="#333333"/>
</g>
</g>
<defs>
<linearGradient id="paint0_linear_1715_526" x1="108" y1="23.6943" x2="108" y2="81.5454" gradientUnits="userSpaceOnUse">
<stop stop-color="#9BA7FA"/>
<stop offset="1" stop-color="#5B6FF6"/>
</linearGradient>
<linearGradient id="paint1_linear_1715_526" x1="141.427" y1="42.9771" x2="141.427" y2="62.2614" gradientUnits="userSpaceOnUse">
<stop stop-color="#3B53F4"/>
<stop offset="1" stop-color="#1B37F2"/>
</linearGradient>
<clipPath id="clip0_1715_526">
<rect width="284" height="86.7775" fill="white" transform="translate(108 23.6943)"/>
</clipPath>
</defs>
</svg>
