<svg width="500" height="134" viewBox="0 0 500 134" fill="none" xmlns="http://www.w3.org/2000/svg">
<rect width="500" height="133.929" fill="white"/>
<g clip-path="url(#clip0_1716_571)">
<mask id="mask0_1716_571" style="mask-type:luminance" maskUnits="userSpaceOnUse" x="132" y="39" width="235" height="56">
<path d="M367 39.481H132V94.6548H367V39.481Z" fill="white"/>
</mask>
<g mask="url(#mask0_1716_571)">
<mask id="mask1_1716_571" style="mask-type:luminance" maskUnits="userSpaceOnUse" x="132" y="39" width="235" height="58">
<path d="M367 39.481H132V96.3247H367V39.481Z" fill="white"/>
</mask>
<g mask="url(#mask1_1716_571)">
<mask id="mask2_1716_571" style="mask-type:luminance" maskUnits="userSpaceOnUse" x="132" y="39" width="235" height="44">
<path d="M367 39.481H132V82.536H367V39.481Z" fill="white"/>
</mask>
<g mask="url(#mask2_1716_571)">
<path d="M324.262 50.6367H330.896C331.02 50.6367 331.138 50.6873 331.225 50.7774C331.312 50.8675 331.361 50.9897 331.361 51.117V56.0374C332.335 53.1345 335.028 50.1724 339.383 50.1724C343.28 50.1724 345.973 52.0089 347.463 55.8597C349.124 52.3051 351.357 50.1724 355.712 50.1724C363.218 50.1724 367 55.3857 367 63.1418V81.2092C367 81.3367 366.951 81.4589 366.863 81.5488C366.778 81.639 366.659 81.6896 366.536 81.6896H359.844C359.721 81.6896 359.603 81.639 359.515 81.5488C359.429 81.4589 359.38 81.3367 359.38 81.2092V65.22C359.38 60.8969 358.405 57.163 354.682 57.163C351.3 57.163 349.238 61.0058 349.238 67.1158V81.2061C349.238 81.3335 349.189 81.4557 349.101 81.5458C349.016 81.6359 348.897 81.6864 348.774 81.6864H342.254C342.131 81.6864 342.013 81.6359 341.925 81.5458C341.839 81.4557 341.79 81.3335 341.79 81.2061V65.22C341.79 60.8969 341.158 57.163 337.033 57.163C332.622 57.163 331.533 62.2578 331.533 68.123V81.2092C331.533 81.3367 331.484 81.4589 331.397 81.5488C331.31 81.639 331.192 81.6896 331.069 81.6896H324.262C324.139 81.6896 324.021 81.639 323.934 81.5488C323.847 81.4589 323.798 81.3367 323.798 81.2092V51.117C323.798 50.9897 323.847 50.8675 323.934 50.7774C324.021 50.6873 324.139 50.6367 324.262 50.6367Z" fill="#666666"/>
<path d="M313.732 56.3362C315.337 52.4435 318.444 50.8804 322.324 50.7335C322.372 50.7322 322.421 50.741 322.466 50.7594C322.511 50.7778 322.552 50.8053 322.587 50.8404C322.622 50.8756 322.65 50.9175 322.669 50.9639C322.687 51.0102 322.697 51.06 322.697 51.1103V57.853C322.698 57.9518 322.66 58.0468 322.593 58.1171C322.526 58.1874 322.435 58.2274 322.339 58.2282C321.524 58.2394 319.779 58.3048 318.871 58.7072C316.359 59.357 313.903 60.8339 313.903 68.0413V81.2088C313.903 81.3359 313.854 81.4577 313.768 81.5476C313.681 81.6373 313.563 81.6878 313.44 81.6878H306.65C306.527 81.6878 306.409 81.6373 306.322 81.5476C306.235 81.4577 306.187 81.3359 306.187 81.2088V51.6181C306.187 51.491 306.235 51.3692 306.322 51.2794C306.409 51.1895 306.527 51.1391 306.65 51.1391H313.261C313.384 51.1391 313.502 51.1895 313.589 51.2794C313.675 51.3692 313.724 51.491 313.724 51.6181L313.732 56.3362Z" fill="#666666"/>
<path d="M273.991 66.2933C273.991 56.3127 281.022 50.1724 289.595 50.1724C298.112 50.1724 305.086 56.3143 305.086 66.2933C305.086 76.3329 298.112 82.5338 289.595 82.5338C281.022 82.5338 273.991 76.3329 273.991 66.2933ZM289.595 76.2148C294.453 76.2148 297.654 71.7265 297.654 66.2933C297.654 60.9191 294.453 56.4308 289.595 56.4308C284.679 56.4308 281.477 60.9191 281.477 66.2933C281.479 71.7265 284.679 76.2148 289.595 76.2148Z" fill="#666666"/>
<path d="M274.266 46.0302V39.9579C274.266 39.8308 274.217 39.7088 274.13 39.6189C274.043 39.529 273.925 39.4785 273.802 39.4785H248.588C248.465 39.4785 248.347 39.529 248.26 39.6189C248.173 39.7088 248.124 39.8308 248.124 39.9579V81.2098C248.124 81.3369 248.173 81.4589 248.26 81.5488C248.347 81.6387 248.465 81.6892 248.588 81.6892H255.668C255.791 81.6892 255.908 81.6387 255.996 81.5488C256.082 81.4589 256.131 81.3369 256.131 81.2098V64.3127C256.131 64.1856 256.18 64.0636 256.267 63.9737C256.354 63.8837 256.472 63.8333 256.595 63.8333H272.427C272.55 63.8333 272.668 63.7828 272.755 63.6929C272.842 63.603 272.891 63.481 272.891 63.3539V57.4542C272.891 57.327 272.842 57.2051 272.755 57.1152C272.668 57.0253 272.55 56.9748 272.427 56.9748H256.597C256.474 56.9748 256.356 56.9243 256.269 56.8344C256.182 56.7445 256.133 56.6225 256.133 56.4954V46.5096H273.803C273.926 46.5092 274.044 46.4585 274.13 46.3686C274.217 46.2788 274.266 46.1571 274.266 46.0302Z" fill="#666666"/>
<path d="M195.755 51.0152H202.638C202.741 51.0152 202.842 51.0513 202.923 51.1175C203.004 51.1838 203.061 51.2765 203.086 51.3807L206.246 64.6015C207.1 68.2205 207.442 70.7123 208.183 74.5095H208.238C209.092 70.8903 209.434 68.2205 210.402 64.1268L213.326 51.384C213.351 51.2782 213.409 51.1843 213.491 51.1173C213.573 51.0503 213.675 51.0143 213.779 51.0152H221.708C221.811 51.015 221.912 51.0514 221.994 51.1183C222.075 51.1852 222.133 51.2788 222.157 51.384L225.146 64.2455C225.887 67.39 226.57 71.3008 227.31 74.5687H227.367C227.994 71.6617 228.734 67.746 229.474 64.2455L232.353 51.3872C232.376 51.2811 232.434 51.1866 232.516 51.1191C232.598 51.0515 232.699 51.0149 232.804 51.0152H239.681C239.753 51.0149 239.824 51.0321 239.888 51.0654C239.952 51.0987 240.008 51.1471 240.051 51.2069C240.095 51.2667 240.124 51.3361 240.137 51.4097C240.15 51.4834 240.146 51.5591 240.126 51.6309L231.906 81.3402C231.879 81.4407 231.82 81.529 231.74 81.5917C231.66 81.6547 231.562 81.6884 231.462 81.6882H223.12C223.018 81.6882 222.918 81.6526 222.837 81.587C222.756 81.5214 222.698 81.4295 222.673 81.3257L219.685 69.1104C218.945 66.0254 218.146 62.4656 217.806 59.8551H217.579C217.01 62.9996 216.44 65.6694 215.7 69.0511L212.712 81.321C212.687 81.4246 212.629 81.5165 212.548 81.5821C212.467 81.6479 212.367 81.6835 212.264 81.6833H203.973C203.873 81.6833 203.775 81.6492 203.695 81.5864C203.615 81.5237 203.557 81.4356 203.529 81.3355L195.309 51.6293C195.289 51.5574 195.285 51.4817 195.298 51.4082C195.312 51.3347 195.341 51.2654 195.384 51.2058C195.427 51.1462 195.484 51.0979 195.548 51.0648C195.612 51.0317 195.683 51.0147 195.755 51.0152Z" fill="#666666"/>
<path d="M182.752 82.5338C173.749 82.5338 167.498 75.9904 167.498 66.2639C167.498 56.9499 173.978 50.1724 182.809 50.1724C192.674 50.1724 197.435 57.7768 197.492 67.0318C197.492 67.2517 197.492 67.6692 197.468 68.1136C197.462 68.2356 197.41 68.3502 197.323 68.4342C197.237 68.518 197.122 68.5646 197.004 68.5644H175.437C175.369 68.5634 175.301 68.5779 175.238 68.6069C175.176 68.6359 175.121 68.6788 175.076 68.7324C175.032 68.7859 174.999 68.8489 174.981 68.9169C174.963 68.9847 174.96 69.0561 174.972 69.1253C175.716 73.4573 178.731 76.169 182.746 76.169C185.57 76.169 188.016 75.1812 189.166 72.8853C189.206 72.8089 189.265 72.7451 189.337 72.7004C189.409 72.6558 189.491 72.6321 189.576 72.6319H196.384C196.458 72.6317 196.532 72.6497 196.598 72.6849C196.664 72.7198 196.721 72.7707 196.764 72.8332C196.808 72.8957 196.836 72.9679 196.846 73.0439C196.856 73.1197 196.848 73.197 196.824 73.2693C194.88 78.9156 189.777 82.5338 182.752 82.5338ZM189.493 63.3163C189.562 63.3174 189.629 63.3031 189.692 63.274C189.754 63.245 189.809 63.2025 189.854 63.149C189.898 63.0956 189.93 63.0329 189.948 62.9651C189.967 62.8974 189.97 62.8263 189.958 62.7572C189.355 59.3159 187.168 56.1836 182.758 56.1836C178.711 56.1836 175.915 58.8124 175.068 62.7397C175.054 62.8094 175.055 62.8815 175.071 62.9506C175.087 63.0198 175.119 63.0844 175.162 63.1398C175.206 63.195 175.261 63.2395 175.324 63.2702C175.386 63.3008 175.455 63.3165 175.524 63.3163H189.493Z" fill="#666666"/>
<path d="M142.358 39.48C142.441 39.4798 142.523 39.5031 142.595 39.5476C142.667 39.5921 142.725 39.656 142.765 39.7324L154.46 62.2997C156.222 65.9651 157.7 69.1574 158.78 71.4072C158.667 68.0373 158.61 64.3769 158.61 60.2928V39.9593C158.61 39.8322 158.658 39.7103 158.745 39.6204C158.831 39.5305 158.949 39.48 159.071 39.48H165.936C166.058 39.48 166.176 39.5305 166.262 39.6204C166.348 39.7103 166.397 39.8322 166.397 39.9593V81.2112C166.397 81.3383 166.348 81.4603 166.262 81.5502C166.176 81.6401 166.058 81.6906 165.936 81.6906H156.15C156.067 81.6904 155.986 81.6673 155.915 81.6234C155.844 81.5797 155.785 81.5167 155.746 81.4413L145.133 61.3537C142.972 56.5061 140.812 52.6043 139.675 50.0095C139.789 53.3201 139.789 58.0496 139.789 62.0105V81.2112C139.789 81.3383 139.74 81.4603 139.654 81.5502C139.567 81.6401 139.45 81.6906 139.328 81.6906H132.461C132.339 81.6906 132.221 81.6401 132.135 81.5502C132.049 81.4603 132 81.3383 132 81.2112V39.9593C132 39.8322 132.049 39.7103 132.135 39.6204C132.221 39.5305 132.339 39.48 132.461 39.48H142.358Z" fill="#666666"/>
</g>
<path d="M230.998 88.8037H132.459C132.206 88.8037 132 88.9772 132 89.1914V94.5463C132 94.7604 132.206 94.9341 132.459 94.9341H230.998C231.252 94.9341 231.458 94.7604 231.458 94.5463V89.1914C231.458 88.9772 231.252 88.8037 230.998 88.8037Z" fill="#A1A1A1"/>
</g>
</g>
</g>
<defs>
<clipPath id="clip0_1716_571">
<rect width="235" height="55.1738" fill="white" transform="translate(132 39.478)"/>
</clipPath>
</defs>
</svg>
