<svg width="224" height="60" viewBox="0 0 224 60" fill="none" xmlns="http://www.w3.org/2000/svg">
<g opacity="0.7">
<rect width="224" height="60" fill="white"/>
<path fill-rule="evenodd" clip-rule="evenodd" d="M9 22.3419V14H37.8318L32.8443 22.3419H9ZM37.8329 37.6582V45.9659V46.0001H19.8301L22.7679 41.077C24.0319 38.9574 26.3206 37.6582 28.7802 37.6582H37.8329ZM20.4107 27.0253L9.03516 45.9656H18.7368L32.3329 23.2988H27.0038C24.3051 23.2988 21.8113 24.7005 20.4107 27.0253ZM49.959 29.6927C49.959 34.4449 53.5459 38.0004 58.4309 38.0004C63.3159 38.0004 66.9711 34.3765 66.9028 29.6927C66.9028 25.0089 63.2817 21.385 58.4309 21.385C53.58 21.385 49.959 24.9747 49.959 29.6927ZM63.76 29.6927C63.76 32.8038 61.5395 35.0944 58.465 35.0944C55.3564 35.0944 53.1701 32.8038 53.1359 29.6927C53.1359 26.6158 55.3564 24.291 58.465 24.291C61.5395 24.291 63.76 26.6158 63.76 29.6927ZM70.2164 25.6585V42.9235H73.1884V36.1201H73.3592C73.7691 36.7696 74.8964 37.9662 77.0486 37.9662C80.3622 37.9662 82.6509 35.3337 82.6509 31.6072C82.6509 27.8807 80.328 25.3508 76.9461 25.3508C74.7598 25.3508 73.6325 26.6841 73.325 27.197H73.1542V25.6585H70.2164ZM79.6448 31.6756C79.6448 33.7953 78.3467 35.2996 76.3995 35.2996C74.5207 35.2996 73.1542 33.8978 73.1542 31.6756C73.1542 29.6243 74.384 28.0517 76.3653 28.0517C78.3467 28.0517 79.6448 29.4876 79.6448 31.6756ZM85.1447 31.744C85.1447 35.3337 87.6726 38.0004 91.2253 38.0004C94.334 38.0004 96.5203 36.3936 97.101 33.932H94.334C93.924 34.9235 92.7967 35.6072 91.3278 35.6072C89.4148 35.6072 88.1508 34.3765 88.0484 32.5303H97.2376V31.6072C97.2376 28.2226 95.1197 25.3508 91.2253 25.3508C87.7068 25.3508 85.1447 27.9491 85.1447 31.744ZM94.3681 30.4448H88.0825C88.2533 28.9064 89.5514 27.744 91.2253 27.744C92.9675 27.744 94.2315 28.8038 94.3681 30.4448ZM103.284 25.6585H100.449V37.6927H103.421V30.8209C103.421 29.2824 104.48 28.1542 105.915 28.1542C107.281 28.1542 108.237 29.1457 108.237 30.6158V37.6927H111.244V29.8295C111.244 27.2653 109.57 25.3508 106.871 25.3508C105.129 25.3508 103.933 26.2397 103.455 27.1286H103.284V25.6585ZM114.181 34.9577V37.6927H126.411V35.0602H118.007V34.8893L126.377 24.3594V21.6585H114.489V24.291H122.551V24.4619L114.181 34.9577ZM128.427 31.744C128.427 35.3337 130.954 38.0004 134.507 38.0004C137.65 38.0004 139.802 36.3936 140.383 33.932H137.616C137.206 34.9235 136.079 35.6072 134.61 35.6072C132.697 35.6072 131.433 34.3765 131.33 32.5303H140.519V31.6072C140.519 28.2226 138.401 25.3508 134.507 25.3508C130.989 25.3508 128.427 27.9491 128.427 31.744ZM134.507 27.744C136.249 27.744 137.513 28.8038 137.65 30.4448H131.364C131.569 28.9064 132.833 27.744 134.507 27.744ZM143.731 25.6585V42.9235H146.703V36.1201H146.873C147.283 36.7696 148.411 37.9662 150.563 37.9662C153.876 37.9662 156.165 35.3337 156.165 31.6072C156.165 27.8807 153.842 25.3508 150.46 25.3508C148.274 25.3508 147.147 26.6841 146.839 27.197H146.668V25.6585H143.731ZM153.159 31.6756C153.159 33.7953 151.861 35.2996 149.914 35.2996C148.035 35.2996 146.668 33.8978 146.668 31.6756C146.668 29.6243 147.898 28.0517 149.88 28.0517C151.861 28.0517 153.159 29.4876 153.159 31.6756ZM159.41 25.6585V42.9235H162.382V36.1201H162.553C162.963 36.7696 164.09 37.9662 166.243 37.9662C169.556 37.9662 171.845 35.3337 171.845 31.6072C171.845 27.8807 169.522 25.3508 166.14 25.3508C163.954 25.3508 162.827 26.6841 162.519 27.197H162.348V25.6585H159.41ZM168.805 31.6756C168.805 33.7953 167.507 35.2996 165.559 35.2996C163.715 35.2996 162.314 33.8978 162.314 31.6756C162.314 29.6243 163.544 28.0517 165.525 28.0517C167.507 28.0517 168.805 29.4876 168.805 31.6756ZM174.339 31.744C174.339 35.3337 176.867 38.0004 180.419 38.0004C183.528 38.0004 185.68 36.3936 186.295 33.932H183.528C183.118 34.9235 181.991 35.6072 180.522 35.6072C178.609 35.6072 177.345 34.3765 177.242 32.5303H186.432V31.6072C186.432 28.2226 184.314 25.3508 180.419 25.3508C176.901 25.3508 174.339 27.9491 174.339 31.744ZM180.385 27.744C182.127 27.744 183.391 28.8038 183.528 30.4448H177.242C177.447 28.9064 178.711 27.744 180.385 27.744ZM189.267 34.3081C189.267 36.4278 190.463 37.6927 192.581 37.6927H193.708V35.0944H193.23C192.615 35.0944 192.273 34.7184 192.273 34.0346V20.5303H189.267V34.3081ZM196.236 22.3081C196.236 23.4021 196.987 24.0517 198.081 24.0517C199.14 24.0517 199.891 23.4021 199.925 22.3081C199.925 21.2824 199.174 20.5987 198.081 20.5987C196.987 20.5987 196.236 21.2824 196.236 22.3081ZM206.04 25.6585H203.205V37.6927H206.177V30.8209C206.177 29.2824 207.236 28.1542 208.67 28.1542C210.037 28.1542 210.993 29.1457 210.993 30.6158V37.6927H214V29.8295C214 27.2653 212.326 25.3508 209.627 25.3508C207.885 25.3508 206.689 26.2397 206.211 27.1286H206.04V25.6585ZM196.577 25.6585V37.6927H199.584V25.6585H196.577Z" fill="#595959"/>
</g>
</svg>
