<svg width="40" height="40" viewBox="0 0 40 40" fill="none" xmlns="http://www.w3.org/2000/svg">
<g clip-path="url(#clip0_1746_549)">
<mask id="mask0_1746_549" style="mask-type:luminance" maskUnits="userSpaceOnUse" x="0" y="0" width="40" height="40">
<path d="M40 0H0V40H40V0Z" fill="white"/>
</mask>
<g mask="url(#mask0_1746_549)">
<path d="M20 40C31.0457 40 40 31.0457 40 20C40 8.95431 31.0457 0 20 0C8.95431 0 0 8.95431 0 20C0 31.0457 8.95431 40 20 40Z" fill="#FF0420"/>
<path d="M14.1683 25.3119C12.9763 25.3119 12.0003 25.0319 11.2403 24.4719C10.4883 23.9039 10.1123 23.0879 10.1123 22.0399C10.1123 21.8159 10.1363 21.5519 10.1843 21.2319C10.3123 20.5119 10.4963 19.6479 10.7363 18.6319C11.4163 15.8799 13.1763 14.5039 16.0083 14.5039C16.7763 14.5039 17.4723 14.6319 18.0803 14.8959C18.6883 15.1439 19.1683 15.5279 19.5203 16.0399C19.8723 16.5439 20.0483 17.1439 20.0483 17.8399C20.0483 18.0479 20.0243 18.3119 19.9763 18.6319C19.8243 19.5199 19.6483 20.3919 19.4323 21.2319C19.0803 22.5999 18.4803 23.6319 17.6163 24.3119C16.7603 24.9839 15.6083 25.3119 14.1683 25.3119ZM14.3843 23.1519C14.9443 23.1519 15.4163 22.9839 15.8083 22.6559C16.2083 22.3279 16.4963 21.8239 16.6643 21.1359C16.8963 20.1919 17.0723 19.3759 17.1923 18.6719C17.2323 18.4639 17.2563 18.2479 17.2563 18.0239C17.2563 17.1119 16.7843 16.6559 15.8323 16.6559C15.2723 16.6559 14.7923 16.8239 14.3923 17.1519C14.0003 17.4799 13.7203 17.9839 13.5523 18.6719C13.3683 19.3439 13.1923 20.1599 13.0083 21.1359C12.9683 21.3359 12.9443 21.5439 12.9443 21.7679C12.9363 22.6959 13.4243 23.1519 14.3843 23.1519Z" fill="white"/>
<path d="M20.7436 25.168C20.6316 25.168 20.5516 25.136 20.4876 25.064C20.4396 24.984 20.4236 24.896 20.4396 24.792L22.5116 15.032C22.5276 14.92 22.5836 14.832 22.6796 14.76C22.7676 14.688 22.8636 14.656 22.9676 14.656H26.9596C28.0716 14.656 28.9596 14.888 29.6316 15.344C30.3116 15.808 30.6556 16.472 30.6556 17.344C30.6556 17.592 30.6236 17.856 30.5676 18.128C30.3196 19.28 29.8156 20.128 29.0476 20.68C28.2956 21.232 27.2636 21.504 25.9516 21.504H23.9276L23.2396 24.792C23.2156 24.904 23.1676 24.992 23.0716 25.064C22.9836 25.136 22.8876 25.168 22.7836 25.168H20.7436ZM26.0556 19.432C26.4796 19.432 26.8396 19.32 27.1516 19.088C27.4716 18.856 27.6796 18.528 27.7836 18.096C27.8156 17.928 27.8316 17.776 27.8316 17.648C27.8316 17.36 27.7436 17.136 27.5756 16.984C27.4076 16.824 27.1116 16.744 26.7036 16.744H24.9036L24.3356 19.432H26.0556Z" fill="white"/>
</g>
</g>
<defs>
<clipPath id="clip0_1746_549">
<rect width="40" height="40" fill="white"/>
</clipPath>
</defs>
</svg>
