<svg width="40" height="40" viewBox="0 0 40 40" fill="none" xmlns="http://www.w3.org/2000/svg">
<g clip-path="url(#clip0_1746_569)">
<mask id="mask0_1746_569" style="mask-type:luminance" maskUnits="userSpaceOnUse" x="0" y="0" width="40" height="40">
<path d="M40 0H0V40H40V0Z" fill="white"/>
</mask>
<g mask="url(#mask0_1746_569)">
<path d="M20 40C31.0457 40 40 31.0457 40 20C40 8.95431 31.0457 0 20 0C8.95431 0 0 8.95431 0 20C0 31.0457 8.95431 40 20 40Z" fill="#6F41D8"/>
<path d="M26.3651 15.8662C25.9038 15.5975 25.3051 15.5975 24.7976 15.8662L21.1988 17.9338L18.7551 19.2813L15.1563 21.3475C14.6951 21.6175 14.0963 21.6175 13.5888 21.3475L10.7288 19.73C10.2676 19.4613 9.94507 18.9675 9.94507 18.4275V15.2375C9.94507 14.6987 10.2213 14.205 10.7288 13.935L13.5413 12.3625C14.0038 12.0925 14.6038 12.0925 15.1113 12.3625L17.9238 13.935C18.3863 14.205 18.7088 14.6987 18.7088 15.2375V17.305L21.1526 15.9113V13.845C21.1553 13.5766 21.0834 13.3128 20.9451 13.0828C20.8067 12.8529 20.6072 12.6658 20.3688 12.5425L15.1563 9.5775C14.6951 9.3075 14.0963 9.3075 13.5888 9.5775L8.28382 12.5425C8.04545 12.6658 7.84595 12.8529 7.70757 13.0828C7.5692 13.3128 7.49739 13.5766 7.50007 13.845V19.82C7.50007 20.36 7.77632 20.8538 8.28382 21.1238L13.5888 24.0887C14.0501 24.3575 14.6501 24.3575 15.1563 24.0887L18.7551 22.0662L21.1988 20.6737L24.7976 18.6525C25.2588 18.3825 25.8576 18.3825 26.3651 18.6525L29.1788 20.225C29.6413 20.4938 29.9626 20.9875 29.9626 21.5275V24.7175C29.9626 25.2563 29.6876 25.75 29.1788 26.02L26.3663 27.6375C25.9038 27.9075 25.3038 27.9075 24.7976 27.6375L21.9838 26.065C21.5213 25.795 21.1988 25.3012 21.1988 24.7625V22.695L18.7551 24.0887V26.155C18.7551 26.6937 19.0313 27.1887 19.5388 27.4575L24.8438 30.4225C25.3051 30.6925 25.9038 30.6925 26.4113 30.4225L31.7163 27.4575C32.1776 27.1887 32.5001 26.695 32.5001 26.155V20.18C32.5028 19.9116 32.4309 19.6478 32.2926 19.4178C32.1542 19.1879 31.9547 19.0008 31.7163 18.8775L26.3663 15.8662H26.3651Z" fill="white"/>
</g>
</g>
<defs>
<clipPath id="clip0_1746_569">
<rect width="40" height="40" fill="white"/>
</clipPath>
</defs>
</svg>
