<svg width="224" height="60" viewBox="0 0 224 60" fill="none" xmlns="http://www.w3.org/2000/svg">
<rect width="224" height="60" fill="white"/>
<g style="mix-blend-mode:difference" opacity="0.6">
<path d="M92.3462 27.174C92.1266 28.4522 91.5739 29.6499 90.7438 30.6463C89.8804 31.6611 88.7328 32.3939 87.4489 32.7501L91.9141 41.097H85.3965L82.0117 33.2974L80.2472 33.3048L78.7826 41.097H73.042L76.8927 20.5718H86.4408C88.625 20.5718 90.2393 21.2275 91.2839 22.5388C92.3282 23.8504 92.6823 25.3955 92.3462 27.174ZM80.919 29.7285H82.9805C85.1411 29.7285 86.3894 28.8294 86.7255 27.0314C87.0855 25.0969 86.1972 24.1296 84.0607 24.1295H81.9722L80.919 29.7285Z" fill="#A1A1A1"/>
<path d="M96.912 34.0843C96.8878 34.2895 96.8758 34.4263 96.8759 34.4948C96.8759 35.6355 97.23 36.5306 97.9383 37.1802C98.6459 37.8302 99.6722 38.1552 101.017 38.1552C102.802 38.1891 104.552 37.6627 106.022 36.6499L105.446 39.8998C103.79 40.9719 101.677 41.5079 99.1084 41.5076C96.7319 41.5076 94.8714 40.7892 93.5271 39.3525C92.1824 37.9157 91.5822 36.1027 91.7265 33.9134C91.7825 32.8057 92.0674 31.7216 92.5632 30.7295C93.059 29.7374 93.755 28.8588 94.6073 28.1491C96.2688 26.6893 98.4093 25.8917 100.621 25.9085C102.565 25.9085 104.15 26.4216 105.374 27.4478C106.598 28.4741 107.139 29.8311 106.995 31.5187C106.946 32.3964 106.764 33.2616 106.454 34.0843L96.912 34.0843ZM102.637 30.766C102.668 30.5163 102.643 30.2629 102.565 30.0236C102.488 29.7843 102.359 29.5649 102.187 29.3807C101.839 29.0044 101.329 28.8162 100.657 28.8162C99.1445 28.8162 98.0522 29.8082 97.3801 31.7923H102.349C102.513 31.473 102.611 31.124 102.637 30.766Z" fill="#A1A1A1"/>
<path d="M107.008 41.0969L109.169 29.4317H106.685L107.261 26.3188H109.746L109.79 26.081C110.389 22.0432 112.993 20.0243 117.6 20.0244C118.852 20.069 120.095 20.2525 121.307 20.5717L126.67 20.0928L122.79 41.0969H117.415L120.649 23.5811C119.824 23.2648 118.947 23.1028 118.063 23.1031C117.201 23.1031 116.555 23.3086 116.125 23.7195C115.693 24.13 115.394 24.8031 115.227 25.7388L115.12 26.3188H118.252L117.64 29.4317H114.544L112.383 41.0969L107.008 41.0969Z" fill="#A1A1A1"/>
<path d="M130.285 34.0843C130.261 34.2895 130.249 34.4263 130.249 34.4948C130.249 35.6355 130.603 36.5306 131.311 37.1802C132.019 37.8302 133.045 38.1552 134.39 38.1552C136.175 38.1891 137.925 37.6627 139.395 36.6499L138.819 39.8998C137.163 40.9719 135.05 41.5079 132.481 41.5076C130.105 41.5076 128.244 40.7892 126.9 39.3525C125.555 37.9157 124.955 36.1027 125.1 33.9134C125.156 32.8057 125.44 31.7216 125.936 30.7295C126.432 29.7374 127.128 28.8588 127.98 28.1491C129.642 26.6893 131.782 25.8917 133.994 25.9085C135.938 25.9085 137.523 26.4216 138.747 27.4478C139.971 28.4741 140.512 29.8311 140.368 31.5187C140.319 32.3964 140.137 33.2616 139.827 34.0843L130.285 34.0843ZM136.011 30.766C136.041 30.5163 136.016 30.2629 135.938 30.0236C135.861 29.7843 135.732 29.5649 135.56 29.3807C135.212 29.0044 134.702 28.8162 134.03 28.8162C132.518 28.8162 131.425 29.8082 130.753 31.7923H135.722C135.886 31.473 135.984 31.124 136.011 30.766Z" fill="#A1A1A1"/>
<path d="M157.861 26.3188L151.127 33.5711L155.484 41.097H149.939L147.234 36.3382L142.953 41.097H137.516L144.609 33.4684L140.54 26.3188H146.086L148.496 30.7302L152.496 26.3188H157.861Z" fill="#A1A1A1"/>
<path d="M160.248 34.0843C160.224 34.2895 160.212 34.4263 160.212 34.4948C160.212 35.6355 160.566 36.5306 161.274 37.1802C161.982 37.8302 163.008 38.1552 164.353 38.1552C166.138 38.1891 167.888 37.6627 169.358 36.6499L168.782 39.8998C167.126 40.9719 165.013 41.5079 162.444 41.5076C160.068 41.5076 158.207 40.7892 156.863 39.3525C155.518 37.9157 154.918 36.1027 155.062 33.9134C155.118 32.8057 155.403 31.7216 155.899 30.7295C156.395 29.7374 157.091 28.8588 157.943 28.1491C159.605 26.6893 161.745 25.8917 163.957 25.9085C165.901 25.9085 167.486 26.4216 168.71 27.4478C169.934 28.4741 170.475 29.8311 170.33 31.5187C170.282 32.3964 170.1 33.2616 169.79 34.0843L160.248 34.0843ZM165.973 30.766C166.004 30.5163 165.979 30.2629 165.901 30.0236C165.824 29.7843 165.695 29.5649 165.523 29.3807C165.175 29.0044 164.665 28.8162 163.993 28.8162C162.48 28.8162 161.388 29.8082 160.716 31.7923H165.685C165.849 31.473 165.947 31.124 165.973 30.766Z" fill="#A1A1A1"/>
<path d="M183.308 25.9083L182.264 31.4842C181.753 31.2601 181.201 31.1436 180.643 31.1421C178.236 31.1421 176.76 32.5878 176.214 35.4791L175.178 41.0969H169.84L171.73 30.8381C172.079 28.784 172.253 27.2775 172.253 26.3187H177.33C177.376 27.2211 177.339 28.1257 177.219 29.0212C177.848 28.0608 178.702 27.2682 179.707 26.7121C180.803 26.0987 182.055 25.8193 183.308 25.9083Z" fill="#A1A1A1"/>
<g style="mix-blend-mode:luminosity" opacity="0.3">
<path d="M58.4065 13.3442H55.1259L52.2417 27.3717C52.2602 27.3812 52.2798 27.3886 52.2981 27.3984C52.7228 27.625 53.0997 27.9315 53.4081 28.3011C53.4846 28.3927 53.5566 28.4879 53.6242 28.5866C53.9331 29.0356 54.139 29.5473 54.2274 30.085C54.3157 30.6228 54.2843 31.1734 54.1355 31.6976C54.1313 31.7126 54.1286 31.7282 54.1243 31.7431C54.0641 31.9459 53.9867 32.1431 53.8928 32.3326C53.8821 32.3544 53.8728 32.3769 53.8618 32.3984C53.7687 32.5779 53.6611 32.7494 53.5401 32.9114C53.5229 32.9346 53.5064 32.9584 53.4886 32.9813C53.3671 33.1368 53.2335 33.2824 53.0891 33.4168C53.0662 33.4382 53.0434 33.4596 53.02 33.4803C52.8734 33.6104 52.7169 33.7289 52.5519 33.8346C52.5254 33.8515 52.4986 33.8677 52.4717 33.884C52.3025 33.9868 52.1255 34.076 51.9422 34.1507C51.9152 34.1616 51.8876 34.1712 51.8602 34.1815C51.6699 34.2542 51.4739 34.3111 51.2742 34.3516C51.2503 34.3564 51.2257 34.3591 51.2016 34.3634C51.0672 34.3832 50.9319 34.396 50.7962 34.4019L48.6753 44.717H54.2925L60.2725 15.6329C60.3294 15.3559 60.324 15.0698 60.2566 14.7953C60.1893 14.5207 60.0616 14.2646 59.883 14.0454C59.7043 13.8263 59.4792 13.6497 59.2238 13.5284C58.9684 13.4072 58.6893 13.3442 58.4065 13.3442Z" fill="#D0D0D0"/>
<path d="M48.4785 33.8024C48.2788 33.6695 48.0924 33.5177 47.9219 33.349C47.8369 33.265 47.7561 33.1771 47.6795 33.0854C47.5261 32.9018 47.3907 32.7039 47.275 32.4945C47.2171 32.3896 47.1642 32.2819 47.1164 32.1713C46.921 31.7194 46.8175 31.2332 46.812 30.741C46.8074 30.3853 46.8546 30.0308 46.9521 29.6887C46.9563 29.6738 46.9589 29.6583 46.9632 29.6435C47.0234 29.4406 47.1008 29.2434 47.1948 29.0538C47.2054 29.032 47.2147 29.0095 47.2257 28.9881C47.3188 28.8086 47.4264 28.6371 47.5474 28.4751C47.5647 28.4519 47.5812 28.428 47.599 28.4052C47.7205 28.2497 47.8541 28.1041 47.9985 27.9697C48.0214 27.9483 48.0442 27.9269 48.0677 27.9061C48.2142 27.776 48.3707 27.6575 48.5358 27.5519C48.5621 27.535 48.5889 27.5188 48.6157 27.5026C48.7848 27.3998 48.9618 27.3107 49.1451 27.236C49.1723 27.2249 49.2002 27.2153 49.2277 27.2049C49.4179 27.1322 49.6138 27.0754 49.8133 27.0349C49.8373 27.0301 49.8618 27.0274 49.8859 27.0231C50.026 27.0022 50.1671 26.9888 50.3086 26.9829L52.4435 16.6001H46.8262L40.8462 45.6843C40.7892 45.9612 40.7946 46.2473 40.862 46.5219C40.9294 46.7964 41.057 47.0526 41.2357 47.2717C41.4143 47.4908 41.6395 47.6674 41.8949 47.7887C42.1502 47.91 42.4294 47.9729 42.7121 47.9729H45.9927L48.8621 34.0181C48.8388 34.0063 48.8123 34.0004 48.7894 33.9881C48.6825 33.9311 48.5788 33.8692 48.4785 33.8024Z" fill="#D0D0D0"/>
<path d="M50.548 34.3092C50.5527 34.3092 50.5572 34.3078 50.562 34.3078C50.4489 34.3083 50.3351 34.3048 50.2202 34.2944C50.3302 34.3043 50.4394 34.3092 50.548 34.3092Z" fill="#D0D0D0"/>
<path d="M50.5394 27.0771C50.5346 27.0771 50.5302 27.0785 50.5254 27.0785C50.6385 27.078 50.7523 27.0815 50.8671 27.0919C50.7572 27.082 50.6479 27.0771 50.5394 27.0771Z" fill="#D0D0D0"/>
<path d="M58.0409 24.4322C57.2211 23.4451 56.2135 22.6303 55.0767 22.0351C53.9398 21.4399 52.6962 21.0761 51.4178 20.9647C51.1264 20.9386 50.8311 20.9253 50.5395 20.9253C48.025 20.9264 45.6078 21.8971 43.791 23.6354C41.9742 25.3738 40.8977 27.7458 40.7856 30.2577C40.6735 32.7697 41.5345 35.2282 43.1893 37.1214C44.8441 39.0146 47.1652 40.1968 49.6696 40.4218C49.961 40.448 50.2564 40.4612 50.5479 40.4612C52.4049 40.4604 54.2232 39.9302 55.7897 38.9328C57.3562 37.9355 58.6059 36.5122 59.3923 34.8299C60.1787 33.1476 60.4693 31.2759 60.23 29.4344C59.9906 27.5928 59.2312 25.8576 58.0409 24.4322ZM54.145 31.0168C54.1244 31.2366 54.0838 31.454 54.0237 31.6664C54.0197 31.6809 54.0171 31.6959 54.0129 31.7104C53.9546 31.9069 53.8796 32.098 53.7886 32.2816C53.7782 32.3028 53.7693 32.3244 53.7585 32.3454C53.6684 32.5192 53.5642 32.6854 53.4469 32.8423C53.4302 32.8649 53.4143 32.8879 53.397 32.9101C53.2793 33.0607 53.1498 33.2018 53.0099 33.332C52.9876 33.3528 52.9657 33.3733 52.9429 33.3936C52.801 33.5197 52.6493 33.6344 52.4894 33.7368C52.4637 33.7533 52.4379 33.7689 52.4117 33.7847C52.2479 33.8843 52.0763 33.9707 51.8987 34.043C51.8724 34.0537 51.8459 34.0628 51.8193 34.0729C51.6349 34.1434 51.445 34.1985 51.2516 34.2377C51.2283 34.2424 51.2046 34.245 51.1812 34.2492C50.9768 34.2867 50.7696 34.3063 50.5619 34.308C50.5571 34.308 50.5526 34.3093 50.5479 34.3093C50.4395 34.3093 50.3303 34.3044 50.2201 34.2946C49.9763 34.2728 49.7353 34.2264 49.5009 34.1562C49.2734 34.088 49.0533 33.9973 48.8438 33.8856C48.7402 33.8304 48.6398 33.7704 48.5426 33.7057C48.3491 33.5769 48.1685 33.4298 48.0032 33.2664C47.9209 33.185 47.8426 33.0998 47.7684 33.0109C47.6198 32.833 47.4886 32.6413 47.3765 32.4385C47.3204 32.3368 47.2692 32.2325 47.2228 32.1253C47.0336 31.6875 46.9333 31.2165 46.9279 30.7395C46.9234 30.3949 46.9692 30.0515 47.0637 29.72C47.0677 29.7055 47.0703 29.6906 47.0745 29.6762C47.1327 29.4797 47.2078 29.2885 47.2988 29.1049C47.3091 29.0837 47.3181 29.0621 47.3288 29.0412C47.419 28.8673 47.5232 28.7011 47.6404 28.5442C47.6572 28.5216 47.6731 28.4987 47.6904 28.4764C47.8081 28.3258 47.9376 28.1847 48.0775 28.0546C48.0998 28.0338 48.1217 28.0132 48.1445 27.9929C48.2865 27.8668 48.4381 27.7521 48.598 27.6497C48.6237 27.6333 48.6494 27.6177 48.6755 27.602C48.8393 27.5024 49.0108 27.416 49.1884 27.3436C49.2149 27.3329 49.2417 27.3236 49.2685 27.3135C49.4527 27.2431 49.6425 27.188 49.8358 27.1488C49.8591 27.1442 49.8827 27.1416 49.9062 27.1374C50.1105 27.0999 50.3178 27.0802 50.5255 27.0786C50.5303 27.0786 50.5348 27.0773 50.5395 27.0773C50.6479 27.0773 50.7571 27.0822 50.8673 27.092C50.9902 27.103 51.1126 27.1203 51.2338 27.1437C51.4701 27.1892 51.7012 27.2584 51.9236 27.3501C52.0332 27.3953 52.1399 27.4456 52.2436 27.501C52.655 27.7205 53.0202 28.0175 53.319 28.3756C53.3931 28.4643 53.4629 28.5566 53.5284 28.6522C54.0031 29.3446 54.2211 30.1809 54.145 31.0168Z" fill="#D0D0D0"/>
</g>
</g>
</svg>
