<svg width="36" height="39" viewBox="0 0 36 39" fill="none" xmlns="http://www.w3.org/2000/svg">
<path fill-rule="evenodd" clip-rule="evenodd" d="M7.23057 38.6942V24.1221H0.371094V18.1874H7.23057V16.0792H0.371094V10.2776H7.23057V0.828125H22.8129C26.8969 0.828125 29.9201 1.78871 31.8806 3.70938C33.841 5.61175 34.8222 8.54745 34.8222 12.517C34.8222 15.5259 34.0992 17.945 32.6508 19.7745C31.2023 21.5854 29.1898 22.8459 26.6039 23.5531L35.3711 38.6942H27.2636L19.2116 24.151H14.5413V38.6942H7.23057ZM14.5413 18.1984H23.7757C26.0655 18.1984 27.211 16.9379 27.211 14.4193V10.531C27.211 9.26257 26.9547 8.35691 26.4402 7.81154C25.9471 7.25033 25.0579 6.96875 23.7757 6.96875H14.5413V18.1984Z" fill="white"/>
</svg>
