<svg width="33" height="34" viewBox="0 0 33 34" fill="none" xmlns="http://www.w3.org/2000/svg">
<path d="M30.2053 16.5276H26.7262C25.6871 16.5276 24.8452 17.3955 24.8452 18.4665V23.6717C24.8452 24.7427 24.0032 25.6106 22.9642 25.6106H9.12329C8.08419 25.6106 7.24219 26.4785 7.24219 27.5496V31.1358C7.24219 32.2068 8.08419 33.0747 9.12329 33.0747H23.7653C24.8044 33.0747 25.6343 32.2068 25.6343 31.1358V28.2585C25.6343 27.1875 26.4763 26.4277 27.5154 26.4277H30.2046C31.2436 26.4277 32.0856 25.5598 32.0856 24.4887V18.444C32.0856 17.373 31.2443 16.5276 30.2053 16.5276Z" fill="#17FF7F"/>
<path d="M7.24107 9.40309C7.24107 8.33199 8.08307 7.46409 9.12217 7.46409H22.9546C23.9937 7.46409 24.8356 6.59619 24.8356 5.52519V1.93895C24.8356 0.86788 23.9937 0 22.9546 0H8.32027C7.28127 0 6.43927 0.86788 6.43927 1.93895V4.70229C6.43927 5.77329 5.59737 6.64119 4.55827 6.64119H1.88102C0.841951 6.64119 0 7.50909 0 8.58019V14.6314C0 15.7025 0.84547 16.5268 1.88455 16.5268H5.36357C6.40267 16.5268 7.24467 15.659 7.24467 14.5879L7.24107 9.40309Z" fill="#17FF7F"/>
<path d="M14.4061 12.7578H17.7479C18.837 12.7578 19.7205 13.6692 19.7205 14.7911V18.2358C19.7205 19.3583 18.8363 20.269 17.7479 20.269H14.4061C13.3171 20.269 12.4336 19.3576 12.4336 18.2358V14.7911C12.4336 13.6685 13.3178 12.7578 14.4061 12.7578Z" fill="#17FF7F"/>
</svg>
