<svg width="600" height="600" viewBox="0 0 600 600" fill="none" xmlns="http://www.w3.org/2000/svg">
<g clip-path="url(#clip0_498_841)">
<path d="M599.528 0.0458984H0.526367V599.048H599.528V0.0458984Z" fill="white"/>
<path fill-rule="evenodd" clip-rule="evenodd" d="M164.682 455.873L231.856 417.093L300.003 377.737L368.22 417.087L435.372 455.878L437.368 457.032L435.371 458.184L300.037 536.3L164.682 458.179L162.686 457.026L164.682 455.873ZM268.44 398.27L300.003 380.042L331.627 398.284L300.039 416.514L268.44 398.27ZM266.444 399.423L232.855 418.822L200.284 437.625L231.867 455.855L298.042 417.667L266.444 399.423ZM198.287 438.778L166.679 457.026L198.247 475.246L229.87 457.008L198.287 438.778ZM200.245 476.399L232.35 494.929L263.959 476.684L231.867 458.16L200.245 476.399ZM234.347 496.081L266.448 514.608L298.051 496.363L265.955 477.837L234.347 496.081ZM268.444 515.76L300.037 533.994L331.641 515.752L300.048 497.516L268.444 515.76ZM333.639 514.599L365.709 496.088L334.118 477.846L302.044 496.363L333.639 514.599ZM367.706 494.935L399.795 476.413L368.199 458.171L336.114 476.694L367.706 494.935ZM401.792 475.261L433.375 457.031L401.784 438.783L370.196 457.018L401.792 475.261ZM399.788 437.629L367.689 419.086L336.096 437.331L368.199 455.866L399.788 437.629ZM365.691 417.933L333.625 399.436L302.035 417.667L334.099 436.178L365.691 417.933ZM334.099 438.484L366.202 457.018L334.118 475.541L302.022 457.008L334.099 438.484ZM300.026 458.161L332.121 476.693L300.048 495.21L267.952 476.684L300.026 458.161ZM298.03 457.008L265.955 475.531L233.865 457.008L265.955 438.488L298.03 457.008ZM300.026 455.856L267.953 437.336L300.039 418.819L332.102 437.331L300.026 455.856Z" fill="#A1A1A1"/>
<path d="M436.835 378.582L300.008 457.599L163.169 378.594V220.576L300.004 141.575L436.835 220.575V378.582Z" fill="white"/>
<path d="M435.456 377.777L367.377 338.431" stroke="black" stroke-width="2"/>
<path d="M300.016 299.598L368.682 259.894L299.992 220.253L231.317 259.914L300.016 299.598Z" fill="url(#paint0_linear_498_841)"/>
<path d="M366.686 338.043L300.024 376.54L233.322 338.036V261.066L299.994 222.559L366.686 261.051V338.043Z" stroke="black" stroke-width="4"/>
<path d="M163.173 378.578V220.58L300.019 299.599V457.595L163.173 378.578Z" fill="#A1A1A1"/>
<path d="M300.019 299.598L163.173 220.58L300.019 141.601V299.598Z" fill="#EDEDED"/>
<path d="M434.839 377.429L300.008 455.293L165.166 377.441V221.729L300.004 143.88L434.839 221.727V377.429Z" stroke="black" stroke-width="4"/>
<path d="M300.006 497.47V101.934" stroke="black" stroke-dasharray="4 4"/>
<path d="M130.092 201.465L95.4993 221.44L60.8916 201.469V161.554L95.4774 141.571L130.092 161.548V201.465Z" fill="white"/>
<path d="M129.094 200.888L95.4999 220.287L61.8906 200.893V162.13L95.4782 142.724L129.094 162.124V200.888Z" stroke="black" stroke-width="2"/>
<path d="M129.081 162.124L95.4852 181.488M95.4852 181.488L61.9443 162.16M95.4852 181.488V220.207" stroke="black" stroke-width="2"/>
<path d="M539.113 437.623L504.52 457.597L469.912 437.628V397.712L504.497 377.729L539.113 397.706V437.623Z" fill="white"/>
<path d="M538.114 437.047L504.519 456.445L470.91 437.051V398.288L504.498 378.883L538.114 398.282V437.047Z" stroke="black" stroke-width="2"/>
<path d="M538.101 398.282L504.505 417.646M504.505 417.646L470.964 398.318M504.505 417.646V456.365" stroke="black" stroke-width="2"/>
</g>
<defs>
<linearGradient id="paint0_linear_498_841" x1="231.317" y1="220.253" x2="376.36" y2="281.381" gradientUnits="userSpaceOnUse">
<stop/>
<stop offset="1" stop-color="#333333"/>
</linearGradient>
<clipPath id="clip0_498_841">
<rect width="600" height="600" fill="white"/>
</clipPath>
</defs>
</svg>
