<svg width="36" height="36" viewBox="0 0 36 36" fill="none" xmlns="http://www.w3.org/2000/svg">
<g clip-path="url(#clip0_1736_506)">
<path d="M18 36C27.9411 36 36 27.9411 36 18C36 8.05887 27.9411 0 18 0C8.05887 0 0 8.05887 0 18C0 27.9411 8.05887 36 18 36Z" fill="#0657F9"/>
<path fill-rule="evenodd" clip-rule="evenodd" d="M10.4908 7.08964L9.07071 8.53346L12.5335 12.0529L15.9963 15.5724V18.8498V22.1271H18.0076H20.019V18.8499V15.5727L23.4819 12.0527L26.9448 8.53279L25.5139 7.07889L24.083 5.625L21.066 8.69136C19.4066 10.3779 18.0302 11.7578 18.0074 11.7578C17.9846 11.7578 16.613 10.3826 14.9595 8.70176C13.3059 7.02096 11.9436 5.64576 11.932 5.64576C11.9204 5.64576 11.2719 6.29544 10.4908 7.08964ZM9.00327 15.3052C8.49955 16.1919 8.03532 17.7704 7.9074 19.0317C7.84423 19.6538 7.87765 21.0113 7.97102 21.6213C8.84481 27.3283 14.1486 31.2076 19.73 30.2219C23.4096 29.5721 26.4352 26.9338 27.6113 23.3495C27.9983 22.17 28.1238 21.3723 28.125 20.0828C28.1263 18.687 27.9699 17.7593 27.5173 16.4788C27.3622 16.0396 26.963 15.1721 26.9162 15.1721C26.8974 15.1721 26.2032 15.8622 25.3735 16.7058C23.9785 18.1241 23.8665 18.2486 23.8859 18.3602C23.8974 18.4267 23.9372 18.62 23.9744 18.7898C24.0823 19.2835 24.1243 19.9515 24.0827 20.5083C24.0388 21.0935 23.9696 21.4541 23.7945 22.0096C23.2324 23.7932 21.7436 25.321 19.9657 25.9386C19.2866 26.1744 18.9055 26.2326 18.0284 26.2345C17.1368 26.2365 16.8005 26.1883 16.1095 25.9598C14.2296 25.3384 12.6975 23.7347 12.1458 21.811C11.9666 21.1862 11.9151 20.787 11.9174 20.0406C11.9195 19.3467 11.9414 19.1691 12.1244 18.3545C12.1391 18.2888 11.806 17.9278 10.6133 16.7173L9.08331 15.1643L9.00327 15.3052Z" fill="white"/>
</g>
<defs>
<clipPath id="clip0_1736_506">
<rect width="36" height="36" fill="white"/>
</clipPath>
</defs>
</svg>
